<?xml version="1.0" encoding="UTF-8"?>
<svg version="1.1" viewBox="0 0 30 30" xmlns="http://www.w3.org/2000/svg">
  <path d="m14 0.035-0.74 2.5c-1.1 0.14-2.1 0.43-3.2 0.85l-1.8-1.7-1.6 0.95 0.56 2.4c-0.87 0.67-1.6 1.4-2.3 2.3l-2.4-0.56-0.95 1.6 1.7 1.8c-0.42 1-0.7 2.1-0.85 3.2l-2.4 0.73v1.9l2.4 0.73c0.14 1.1 0.43 2.1 0.85 3.2l-1.7 1.8 0.95 1.6 2.4-0.56c0.67 0.87 1.4 1.6 2.3 2.3l-0.56 2.4 1.6 0.95 1.8-1.7c1 0.42 2.1 0.7 3.2 0.85l0.73 2.4h1.9l0.73-2.4c1.1-0.14 2.1-0.43 3.2-0.85l1.8 1.7 1.6-0.95-0.56-2.4c0.87-0.67 1.6-1.4 2.3-2.3l2.4 0.56 0.95-1.6-1.7-1.8c0.42-1 0.7-2.1 0.85-3.2l2.4-0.73v-1.9l-2.3-0.73c-0.21-1.1-0.5-2.2-0.86-3.2l1.6-1.8-0.95-1.6-2.4 0.56c-0.67-0.87-1.4-1.6-2.3-2.4l0.53-2.4-1.6-0.95-1.8 1.6c-1-0.36-2.1-0.64-3.2-0.86l-0.73-2.3zm1 4c5.9 0 11 4.8 11 11 0 5.9-4.8 11-11 11-5.9 0-11-4.8-11-11 0-5.9 4.8-11 11-11z" stroke-width=".26px"/>
</svg>
