<?xml version="1.0" encoding="UTF-8"?>
<svg width="1280pt" height="1280pt" version="1.0" viewBox="0 0 1280 1280" xmlns="http://www.w3.org/2000/svg">
  <path d="m615 11c-15 16-23 32-28 58-4.1 20-4.8 35-4.3 82 0.8 62-0.6 81-7.3 101-2.7 8.1-7.5 18-11 23-0.8 1.1-6.7 3.1-16 5.7-8.2 2.1-20 5.5-25 7.5-5.8 1.9-11 3.5-12 3.5-0.6 0-3.9-3.8-7.3-8.4-18-25-34-37-78-59-30-15-43-24-61-42-17-17-34-42-50-72-4.1-7.9-7.8-14-8.1-14-1.3 0-5 16-5.7 24-2.3 26 4.7 52 22 86 3.9 7.4 15 27 26 44 20 34 31 54 36 68 4.6 13 7.4 28 7 37l-0.3 8-12 12c-6.4 6.3-15 15-19 20l-7.5 8.3-10-4.5c-29-12-47-15-90-12-36 2.2-51 1.3-74-4.5-26-6.5-54-20-85-40-6.5-4.1-12-7.3-12-7.1-1.2 1.2 3.3 16 7.7 25 6.2 13 14 24 27 36 17 16 32 26 79 52 17 9.4 35 20 40 23 26 17 42 32 50 48l3 5.7-2.5 8.3c-3 9.8-8.2 31-9.1 38-0.4 2.6-1.3 5.4-2 6.1-0.8 0.7-4.9 1.6-9.2 1.9-18 1.4-38 7.1-55 16-6.1 3.1-20 12-32 19-38 25-60 34-94 39-17 2.6-44 3.7-63 2.8-9.4-0.5-17-0.7-18-0.5-0.9 0.8 16 16 22 20 12 8.1 26 13 44 17 20 4.1 35 4.8 82 4.3 72-0.8 91 1.3 114 12 12 6 12 6.1 16 19 1.6 6.4 4.9 18 7.4 25s4.5 14 4.5 15-3.9 3.9-8.7 7.4c-13 9-28 25-37 38-3.7 5.6-13 22-20 36-14 28-23 42-35 56-18 20-49 43-83 60-6.1 3.1-11 6.1-11 6.5 0 1.4 16 5.2 24 5.9 12 1 28-0.4 39-3.3 23-5.9 44-16 87-42 33-20 48-28 61-34 18-8 36-12 49-11l6.8 0.3 12 13c6.9 6.9 16 16 20 19l7.4 6.4-4.1 9c-5 11-9.7 26-12 37-2.6 15-2.9 27-1.2 56 2.3 37 0.9 55-6.1 80-6.6 23-21 53-39 81-3.6 5.6-6.3 10-6 11 1.2 1.2 15-3.2 25-7.7 12-6 24-14 35-26 16-17 27-34 53-80 9.3-17 20-35 23-40 17-26 32-42 48-50l5.2-2.7 8.3 2.5c9.8 3 31 8.2 38 9.1 2.6 0.4 5.4 1.3 6.1 2 0.7 0.8 1.6 5 2 9.7 0.8 10 3.6 24 7.1 34 4.3 13 13 29 28 51 26 39 34 60 40 96 2.1 14 3.2 45 2.4 64-0.3 8.2-0.4 15-0.2 15 0.9 1.1 14-13 19-21 12-18 18-39 21-71 0.8-8.4 1-27 0.6-56-0.7-62 0.7-81 7.4-102 2.8-8.2 7.7-18 11-23 0.9-1.2 6.7-3.2 16-5.7 8.2-2.1 20-5.5 25-7.5 5.8-1.9 11-3.5 12-3.5s3.8 3.7 7 8.2c9 12 26 29 38 37 5.6 3.7 22 13 36 20 27 14 42 23 55 35 20 18 43 50 60 83 3.1 6.2 6 11 6.5 11s1.9-3.7 3.2-8.3c2.1-7.2 2.4-10 2.4-26s-0.3-19-2.7-28c-6.4-25-15-44-46-96-32-53-41-76-41-102v-7.8l11-11c6.3-6.2 15-15 19-20l7.9-8.9 9 4c18 8.1 36 12 56 14 5 0.3 22-0.1 37-1 41-2.5 60-0.6 88 8.8 24 8.1 52 22 77 39 3.1 2.1 6 3.8 6.4 3.8 0.9 0-0.4-6.4-2.8-14-5.2-16-16-32-30-46-18-17-32-27-83-55-15-8.4-32-18-37-21-26-17-42-32-50-48l-3-5.7 2.5-8.3c3-9.8 8.2-31 9.1-38 0.4-2.6 1.3-5.4 2-6.1 0.8-0.7 4.9-1.6 9.2-1.9 18-1.4 38-7.1 55-16 6.1-3.1 20-12 32-19 38-25 60-34 95-39 14-2.1 45-3.2 64-2.4 8.3 0.3 15 0.4 15 0.2 1.1-0.9-13-14-21-19-18-12-39-18-71-21-8.4-0.8-27-1-56-0.6-62 0.7-81-0.7-101-7.4-8.9-2.9-18-7.3-22-11-1.7-1.3-3.1-5.2-6.2-17-2.1-8.3-5.5-20-7.5-25-1.9-5.8-3.5-11-3.5-12 0-0.6 3.9-4 8.8-7.5 12-9 28-25 37-38 3.7-5.6 13-22 20-36 14-27 23-42 35-55 18-21 49-43 84-61 5.9-3 11-5.8 11-6.3s-3.7-1.9-8.2-3.2c-7.3-2.1-10-2.4-26-2.4s-19 0.3-28 2.7c-25 6.4-43 15-96 46-53 32-76 41-102 41h-7.8l-11-11c-6.2-6.3-15-15-20-19l-8.9-7.9 4.1-9c5-11 9.7-26 12-37 2.6-15 2.9-27 1.1-55-2.2-35-1.2-51 4.1-72 6.7-27 20-55 40-87 4.1-6.5 7.3-12 7.1-12-1.2-1.1-16 3.3-24 7.4-12 5.5-20 12-31 22-19 18-29 33-60 88-22 40-31 54-45 68-7.7 8.2-16 15-24 19l-5.2 2.6-12-3.5c-6.7-1.9-18-4.8-26-6.4s-14-3.5-15-4.1-1-4.6-1.3-8.9c-1.4-18-7.2-38-16-55-3.1-6-12-20-19-32-7.5-12-17-27-20-34-11-22-18-46-20-73-1.3-13-1.6-56-0.4-63 0.4-2.5 0.3-4.2-0.3-4.2-0.5 0-4.3 3.5-8.5 7.9zm68 295c91 12 172 58 227 132 36 48 58 103 66 164 2.4 19 2.4 58 0 77-5 41-16 78-34 114-48 94-136 161-240 179-23 4.1-34 5-60 5-31 0-54-2.7-81-9.5-126-32-223-133-248-260-5-25-6.5-40-6.5-67s1.5-42 6.5-67c15-76 57-144 116-193 56-45 122-72 194-76 13-0.9 46 0.4 62 2.4z" stroke-width=".1"/>
</svg>
