<?xml version="1.0" encoding="UTF-8"?>
<svg width="1280pt" height="1280pt" version="1.0" viewBox="0 0 1280 1280" xmlns="http://www.w3.org/2000/svg">
  <g transform="translate(0 1280) scale(.1 -.1)">
    <path d="m6095 12794c-27-2-115-8-195-14-1509-111-2942-773-4e3 -1861-1068-1070-1705-2439-1848-4e3 -24-258-24-842 0-1100 131-1408 672-2660 1603-3710 124-140 423-438 557-554 193-168 301-251 747-577 177-130 424-265 697-383 81-35 200-86 264-114 1e3 -453 2264-612 3419-446 554 79 1130 241 1610 451 69 30 186 81 260 112 292 125 522 255 769 437 563 416 714 544 1072 910 796 814 1390 1930 1633 3064 101 472 140 852 140 1360 1 594-60 1077-204 1625-471 1789-1689 3285-3346 4108-725 360-1452 565-2284 643-145 14-754 26-865 18zm235-479c0-184-2-335-5-335s-45 20-93 44c-272 136-621 243-967 296-165 26-573 38-725 22-52-6-97-9-98-7-6 5 175 60 360 109 452 121 996 199 1421 205l107 1v-335zm452 325c427-29 834-94 1216-196 185-49 366-104 360-109-1-2-46 1-98 7-152 16-560 4-725-22-346-53-695-160-967-296-48-24-90-44-93-44s-5 151-5 335v335h79c44 0 148-5 233-10zm-1679-450c278-27 570-96 827-197 63-25 118-48 123-52 4-4-57-13-135-20-746-66-1501-289-2117-624-57-32-105-56-106-55-14 18-335 583-335 589 0 12 157 90 289 144 276 112 578 186 891 218 81 9 464 6 563-3zm3337-19c318-49 640-151 911-287 52-25 95-47 97-49 3-2-325-574-337-588-4-4-54 18-111 49-619 337-1380 561-2118 626-78 6-139 15-135 19 17 16 251 102 378 139 185 54 365 88 605 114 19 2 157 3 305 1 214-2 298-7 405-24zm-2315-406c-16-13-77-61-135-106-339-267-606-581-821-964-201-360-333-763-384-1178-8-66-16-122-18-123-4-4-986 1697-989 1711-2 13 255 146 447 231 540 240 1111 386 1715 439 80 7 161 13 180 13l35 1-30-24zm720 10c727-62 1390-252 2e3 -583 102-53 149-82 147-92-4-16-985-1720-989-1716-1 1-9 59-18 129-104 849-532 1612-1200 2141-60 48-123 98-140 111-36 29-44 28 170 10zm-3455-301c91-158 166-292 168-299 2-6-52-47-120-90-363-229-685-492-1e3 -816-231-237-424-471-610-739-78-114-78-113-70-55 123 936 592 1702 1360 2217 55 37 102 68 105 68s79-129 170-286zm6381 159c407-291 741-679 959-1113 165-328 264-659 315-1e3 8-59 7-58-71 55-183 266-377 502-609 739-318 325-638 585-1e3 816-68 42-123 79-123 82 0 4 172 304 287 500l54 93 57-36c31-20 91-61 133-91zm-3441-962c0-938-2-1e3 -16-1e3 -9-3-46-6-82-6-78 0-290-24-412-46-245-45-505-126-735-229-83-37-156-69-162-72-15-6-12 39 13 247 96 784 522 1536 1149 2e3 95 74 225 165 237 165 4 0 8-468 8-1e3zm231 988c637-439 1093-1120 1258-1877 34-158 80-512 66-512-4 0-60 25-126 56-257 118-502 197-779 248-120 22-333 46-412 46-36 0-73 3-82 6-14 6-16 107-16 1e3 0 571 4 1e3 8 1e3 5 0 42-23 83-51zm-4404-701c-110-155-249-413-332-617-120-297-196-614-226-938-12-130-12-132-33-121-58 31-522 301-530 308-10 10 44 101 181 304 149 220 340 467 516 666 74 83 460 470 465 465 2-2-16-32-41-67zm1663-230c96-167 324-562 507-878 182-316 330-576 328-578-1-2-26 8-54 23-182 91-469 189-712 240-262 56-665 80-936 56-342-30-671-111-970-237-59-25-115-48-122-52-17-6 125 203 238 353 315 417 733 824 1163 1132 133 96 359 242 373 243 6 0 89-136 185-302zm5475 223c627-400 1146-906 1581-1540 43-63 71-112 63-109-7 4-63 27-122 52-299 126-628 207-970 237-183 16-554 6-727-20-329-49-608-130-874-255-60-28-96-40-92-31 5 14 964 1678 992 1723 8 12 17 22 20 22s61-35 129-79zm1625-236c237-245 480-547 687-855 73-109 163-257 163-267-1-6-519-309-549-321-4-1-13 57-20 130-31 332-114 670-235 961-79 192-218 448-322 594-24 34-44 65-44 69 0 9 164-150 320-311zm-4595-1247c3-7 4-501 3-1098l-3-1085-34 100c-121 358-298 687-537 995-171 221-468 497-711 662-48 33-89 63-91 67-3 10 227 120 343 165 271 104 598 176 890 196 60 4 116 8 123 9 7 0 15-5 17-11zm440-14c235-27 492-88 712-170 105-39 373-163 373-173 0-3-42-35-94-69-227-153-512-415-687-632-239-298-437-659-560-1e3l-34-100-3 1085c-1 597 0 1090 2 1096 5 13 106 9 291-12zm-5528-155c153-88 282-164 286-168s-36-37-90-73c-453-302-814-706-1075-1203-38-71-66-116-62-100 69 321 207 753 346 1080 89 211 296 625 313 625 2 0 130-72 282-161zm10690 23c232-436 437-978 548-1447 14-60 28-119 31-130s-26 39-63 110c-261 493-614 890-1064 1195-55 38-99 72-98 77 3 12 562 332 571 327 4-3 38-62 75-132zm-8358 113c264-30 532-96 776-192 129-51 295-128 295-137 0-2-23-19-51-36-168-109-425-332-577-503-125-140-194-228-293-373l-75-113-1807 1e3 91 43c279 131 628 230 940 266 163 19 536 19 701 1zm6350 0c249-28 511-91 741-178 155-59 303-128 293-138-12-12-1795-1e3 -1798-1e3 -1 2-34 50-72 108-229 343-568 685-872 880-28 17-51 34-51 36 0 9 166 86 295 137 237 93 513 162 763 191 163 19 536 19 701 1zm-7254-960c484-279 885-512 892-517 8-6-10-53-67-171-171-354-280-765-308-1160l-7-108-105 72c-664 455-1125 1161-1280 2e3 -23 120-50 342-50 413 0 47 0 47 23 33 12-8 418-242 902-521zm2099 503c3-13 6-46 6-73 0-139 57-459 121-680 77-265 215-575 364-815 56-90 221-313 302-409 21-25 34-42 28-39-161 88-1805 1e3 -1805 1e3 0 4 30 52 66 106 154 230 383 483 594 655 102 84 299 228 311 229 4 0 9-10 13-22zm3390-49c298-210 555-466 762-759 85-119 108-160 98-170-5-5-394-231-864-503-470-271-877-506-905-522l-50-30 58 70c373 445 613 938 721 1475 28 137 56 349 56 420 0 46 9 90 17 90 3 0 51-32 107-71zm2906 28c0-73-29-297-56-431-156-784-618-1485-1274-1935l-105-72-7 108c-28 395-136 806-308 1161l-79 162 52 30c29 16 437 252 907 524s858 495 863 495c4 1 7-18 7-42zm-9657-154c-335-723-508-1414-539-2160l-7-163h-707v30c0 60 30 318 50 425 136 742 547 1415 1143 1877 49 37 91 68 93 68s-13-35-33-77zm1e4 -30c61-48 166-144 235-213 523-522 834-1184 900-1920 5-63 10-125 10-137v-23h-707l-7 163c-31 734-227 1522-531 2139-25 49-45 92-45 94 0 10 40-19 145-103zm-9874-168c128-812 599-1586 1259-2069 36-26 67-50 69-52s-435-4-972-4h-977v83c0 179 32 499 75 754 80 471 235 960 439 1388l71 149 8-59c4-33 16-118 28-190zm9778-205c211-532 327-1e3 371-1619 5-74 10-172 10-218v-83h-977c-537 0-974 2-972 4s33 26 69 52c161 118 352 293 487 447 451 514 727 1137 799 1807l7 65 68-140c38-77 100-219 138-315zm-3719 383c-12-21-279-483-593-1e3 -313-543-571-986-573-985-6 7 37 238 67 356 134 540 410 1e3 814 1427 121 121 285 265 302 265 3 0-5-17-17-37zm-2502-35c112-90 334-316 435-443 337-422 557-917 640-1438 8-49 11-85 7-80-5 4-268 458-585 1e3s-579 1e3 -582 1e3c-11 19 15 2 85-55zm360-1e3c327-566 603-1e3 614-1062 11-18 17-33 14-33s-51 37-108 81c-124 98-388 361-482 479-283 358-485 771-591 1210-27 115-65 331-65 370 1 24 1 24 12 5 6-11 279-483 606-1e3zm2312 968c-59-411-197-804-405-1152-145-242-284-418-487-617-123-121-324-292-332-283-5 5 1228 2139 1232 2134 2-2-1-39-8-82zm-3200-1380c514-297 949-547 965-556 42-22 29-21-125 12-260 57-347 66-680 66-201 0-337-5-400-13-356-50-680-145-994-291-49-22-92-41-95-41-14 0 12 288 40 445 26 147 79 346 127 480 52 142 61 165 135 318 45 94 65 127 76 124 9-2 437-247 951-544zm4508 420c132-278 210-517 261-798 27-156 54-445 40-445-3 0-46 19-95 41-314 146-638 241-994 291-63 8-199 13-400 13-332 0-420-9-679-65-74-17-136-29-137-27-4 3 1920 1115 1932 1116 6 1 38-56 72-126zm-4e3 -1054c253-25 602-110 810-197 18-8-315-11-1125-11h-1150l75 30c173 69 468 142 684 170 223 29 468 31 706 8zm3205-5c238-26 534-97 725-173l75-30h-1150c-988 0-1146 2-1118 14 48 20 267 92 354 114 169 45 423 82 634 95 99 6 341-4 480-20zm-7471-521c30-755 224-1523 550-2181 36-73 63-132 60-132s-38 24-77 53c-389 288-712 676-927 1112-193 392-292 765-316 1193l-7 122h710l7-167zm2175 163c-2-2-47-35-99-71-344-244-659-582-879-945-231-380-391-826-441-1230-7-52-15-103-19-114-5-14-25 20-78 130-247 518-415 1108-482 1699-17 142-31 351-31 447v88h1e3c559 0 1e3 -2 1e3 -4zm3e3 -5c-14-13-227-95-339-131-592-188-1258-186-1856 5-122 40-308 112-323 126-6 5 539 9 1259 9 716 0 1265-4 1259-9zm3170 0c-15-14-201-86-323-126-334-107-665-153-1e3 -142-379 12-696 77-1e3 214-63 25-119 50-124 54-6 5 543 9 1259 9 720 0 1265-4 1259-9zm2546-83c0-135-25-419-55-624-75-522-238-1058-462-1527-66-136-82-153-83-82-1 97-73 431-135 619-213 654-642 1239-1195 1631-52 36-97 69-99 71s453 4 1e3 4h1e3v-92zm860 40c0-146-38-425-84-620-163-688-587-1329-1163-1755-39-29-74-53-77-53-2 0 33 78 79 173 258 535 428 1126 499 1732 19 160 36 394 36 498v77h710v-52zm-8910-192c528-184 1073-231 1609-140 79 13 145 23 147 21 3-4-1797-1e3 -1800-1e3 -2 2-24 45-49 94-176 353-289 762-313 1132l-7 102 139-63c76-35 200-85 274-110zm5726 72c-17-274-87-583-193-858-52-135-163-372-174-368-16 7-1788 1e3 -1786 1e3 1 1 65-8 142-21 630-107 1309-15 1885 254 69 33 127 59 129 60s1-45-3-101zm-6281-15c31-406 148-820 333-1189l51-102-906-523c-499-288-911-526-916-528-17-7 14 258 54 459 129 642 513 1287 1e3 1717 100 84 330 253 345 253 4 0 11-39 15-87zm6582-5c423-303 746-683 973-1143 184-373 278-708 316-1123l6-74-49 29c-27 15-439 253-915 528l-866 500 50 100c185 368 302 783 334 1188 5 75 9 87 22 82 9-3 67-42 129-87zm-3658-90c-7-13-257-448-557-968s-559-969-576-998-32-48-34-42 4 54 13 108c105 619 402 1197 845 1643 108 109 301 279 316 279 2 0-1-10-7-22zm673-55c551-455 942-1134 1063-1846 10-54 15-100 13-103-3-2-212 355-466 793-253 439-517 896-586 1e3 -69 119-123 217-121 217s46-35 97-77zm362-1e3c338-586 613-1066 611-1068-15-15-305 244-452 403-399 433-666 980-762 1560-26 159-29 187-19 177 4-4 284-487 622-1072zm-884 898c-74-430-228-822-465-1183-135-206-295-392-495-577-95-88-241-208-253-208-3 0 139 249 314 553 176 303 453 784 617 1068 208 361 298 508 300 493 2-13-6-79-18-146zm1765-488c479-276 900-520 937-542l68-39-37-57c-135-209-342-453-515-610-144-130-411-332-440-332-4 0-8 22-8 49 0 138-64 496-126 699-153 506-401 931-768 1321-48 51-49 53-16 33 19-11 427-246 905-522zm-2421 423c-394-436-656-951-773-1515-32-158-61-363-61-439 0-27-3-49-6-49-32 0-285 190-452 340-149 133-377 405-504 601l-36 56 961 556c529 306 963 556 965 557 2 0-41-48-94-107zm722-2469c-3-8-29-10-78-7-380 21-745 106-1073 250-122 54-185 86-185 93 0 4 32 28 71 55 549 375 999 968 1214 1600 20 61 40 117 44 125 7 16 14-2098 7-2116zm164 2100c0-26 91-267 151-398 229-502 609-963 1059-1283 58-41 106-78 108-82 5-13-210-111-383-173-262-94-601-160-870-170l-80-3-3 1068c-1 714 1 1066 8 1062 5-3 10-13 10-21zm-6130-539c154-293 325-528 560-768 148-152 273-260 443-382 62-44 114-84 115-89 4-10-519-316-530-310-13 8-141 256-219 424-158 343-292 716-379 1055-17 66-33 129-37 140-9 33 3 15 47-70zm12100-31c-92-361-229-747-384-1084-89-193-215-430-228-430-7 0-522 292-535 304-1 1 53 41 120 89 427 304 781 711 1e3 1155 24 46 44 81 46 80 1-2-10-53-26-114zm-8732-269c224-333 517-629 851-857l104-71-89-45c-826-416-1834-428-2673-31-74 36-121 63-115 68 16 16 1829 1060 1835 1058 4-1 43-56 87-122zm6367-410 917-530-108-52c-843-408-1866-401-2698 19l-89 45 104 71c336 230 638 535 860 870 41 62 79 111 85 110 6-2 424-241 929-533zm1418-819c141-82 257-154 257-160 0-16-173-285-276-429-198-277-438-559-669-787l-147-145 50 81c210 340 368 754 437 1149 20 113 45 343 45 414 0 53 0 53 23 39 12-8 138-81 280-162zm-9915 12c40-501 197-993 451-1413l72-120-146 145c-232 230-472 512-669 787-100 140-276 413-276 428 0 9 535 324 550 325 3 0 11-69 18-152zm3453 93c340-160 763-269 1119-287 63-3 125-7 138-10l22-4v-1065c0-586-3-1065-7-1065-11 1-195 133-284 205-105 84-277 253-378 370-426 494-682 1101-741 1755-12 140-12 160-2 160 5 0 65-26 133-59zm2834-33c-71-953-529-1773-1299-2325-56-40-104-73-108-73-5 0-8 479-8 1065v1065l23 4c12 3 74 7 137 10 357 18 801 133 1125 291 61 29 116 54 124 54 11 1 12-17 6-91zm-3275 16c0-9-951-1657-965-1673-11-11-32-1-126 59-496 314-948 719-1329 1190-95 118-293 391-287 396 2 2 60-18 128-45 518-206 1082-275 1629-200 285 38 644 140 865 244 73 35 85 39 85 29zm3700-45c118-52 318-119 473-158 649-167 1353-121 2e3 130 68 27 126 48 128 46 5-6-195-283-287-397-381-471-833-876-1329-1190-62-40-116-68-120-63-6 5-872 1506-969 1677-3 5 1 7 9 3 8-3 57-25 109-48zm231-858c470-815 492-854 473-868-10-8-111-61-224-117-552-274-1123-444-1745-521-136-17-333-30-325-23 3 3 52 43 109 88 505 401 900 991 1080 1615 61 212 121 540 121 663 0 22 4 32 9 27 5-6 231-394 502-864zm-3755 684c74-594 309-1151 685-1626 106-135 365-393 499-499 58-45 107-85 110-88 8-7-189 6-325 23-622 77-1193 247-1745 521-113 56-213 108-223 116-16 12 19 77 459 838 261 454 485 841 497 860l22 35 3-30c1-16 9-84 18-150zm-2786-205c145-190 282-344 489-551 296-295 539-494 885-721 99-65 181-123 181-128 0-17-340-600-350-600-18 0-307 189-379 248-107 87-303 287-400 408-361 451-576 944-661 1521-8 57-15 119-15 140 0 35 3 33 81-83 45-65 121-171 169-234zm9e3 215c-84-636-346-1207-773-1684-101-112-277-276-363-338-112-79-306-195-314-187-10 11-339 579-342 593-2 5 79 63 178 129 349 230 591 428 890 726 271 272 511 560 679 819 59 90 64 83 45-58zm-7313-1700c12-8 102-55 200-104 611-305 1236-486 1925-556 81-8 167-15 191-15 25 0 59-3 76-6 31-7 31-7 9-18-65-33-217-94-332-133-644-216-1346-215-2e3 2-97 34-440 201-467 228-9 9 29 83 164 315 96 166 178 302 182 302 3 0 16-7 28-15zm5561-287c141-246 171-304 160-314-26-26-366-193-453-224-713-249-1497-222-2214 78-145 61-149 69-33 71 168 3 550 56 812 112 507 108 1e3 299 1450 531 47 25 90 47 95 47 6 0 88-135 183-301zm-3e3 -798v-310h-73c-275 0-737 51-1087 121-157 31-492 113-515 127-7 4 77 7 188 8 210 1 332 11 527 45 287 49 640 165 875 287 33 17 66 31 73 32 9 0 12-68 12-310zm228 276c317-159 707-273 1092-317 58-7 196-13 307-13 111-1 195-4 188-8-23-14-358-96-515-127-347-69-814-121-1087-121h-73v310c0 205 3 310 10 310 6 0 41-15 78-34z"/>
  </g>
</svg>
