<?xml version="1.0" encoding="UTF-8"?>
<svg width="187mm" height="187mm" version="1.1" viewBox="-2 -2 187 187" xmlns="http://www.w3.org/2000/svg" xmlns:xlink="http://www.w3.org/1999/xlink">
  <g id="shapes" fill="none" stroke-linecap="round" stroke-linejoin="round" stroke-width=".79">
    <g id="squares" stroke="#000003">
      <rect id="rect60" x="30" y="30" width="124" height="124"/>
      <rect id="rect61" x="52" y="52" width="79" height="79" stroke-width=".79"/>
      <use transform="matrix(.71 .71 -.71 .71 92 -38)" xlink:href="#rect61"/>
      <use transform="matrix(.93 .37 -.37 .93 41 -28)" xlink:href="#rect60"/>
      <use transform="matrix(.71 .71 -.71 .71 92 -38)" xlink:href="#rect60"/>
      <use transform="matrix(.37 .93 -.93 .37 143 -28)" xlink:href="#rect60"/>
    </g>
    <g id="circles" stroke="#000002">
      <circle cx="92" cy="92" r="93"/>
      <circle cx="92" cy="92" r="56"/>
      <circle cx="92" cy="92" r="88"/>
      <circle cx="92" cy="92" r="62"/>
    </g>
  </g>
  <g id="runes" stroke="#000001" stroke-width=".26">
    <path d="m163 63-1.4 2.2-2.6-0.6-1.2 0.51-0.3-0.74 1.2-0.51 1.4-2.3 2.6 0.61 1.2-0.5 0.3 0.74zm-3.5 0.62 0.01 0.018c0.1-0.052 0.21-0.11 0.33-0.17 0.13-0.059 0.29-0.13 0.48-0.21l0.92-0.38c0.08-0.028 0.15-0.055 0.21-0.079 0.06-0.023 0.12-0.044 0.17-0.063l0.17-0.049v-0.018l-1.5-0.34zm2.6-0.23-0.01-0.019c-0.1 0.052-0.21 0.11-0.33 0.17-0.12 0.054-0.27 0.12-0.46 0.2l-0.66 0.28c-0.2 0.083-0.37 0.15-0.49 0.19-0.13 0.049-0.25 0.088-0.36 0.12l0.01 0.014 1.5 0.33z" aria-label="ᛄ"/>
    <path d="m164 91 4.2-9e-3c0.04-0.33 0.14-0.62 0.29-0.85s0.34-0.42 0.55-0.58c0.22-0.15 0.47-0.27 0.75-0.35 0.29-0.072 0.58-0.11 0.88-0.11h0.22v0.82h-0.22c-1 2e-3 -1.6 0.35-1.8 1.1l2-4e-3v0.82l-2 4e-3c0.15 0.7 0.74 1 1.8 1h0.22v0.82h-0.22c-0.3 1e-3 -0.59-0.036-0.88-0.11-0.28-0.072-0.53-0.19-0.75-0.35-0.22-0.15-0.4-0.34-0.55-0.57s-0.25-0.52-0.3-0.85l-4.2 9e-3z" aria-label="ᛘ"/>
    <path d="m164 125-6.4-2.6 0.29-0.71 1.5-0.95-0.43-1.8 0.29-0.71 6.4 2.6-0.29 0.72-1.5 0.95 0.43 1.8zm-2.3-5-1.5 0.95 0.39 1.7 1.1 0.43 1.5-0.97-0.4-1.7zm0.67 3.5 1.2 0.48-0.24-1.1zm-3.7-1.5 1.2 0.48-0.24-1.1zm2.3-2.3-1.2-0.47 0.24 1.1zm3.7 1.5-1.2-0.47 0.24 1.1z" aria-label="ᛥ"/>
    <path d="m148 149-1.3-1.3c-0.38 0.58-0.22 1.2 0.47 1.9l0.16 0.15-0.57 0.56-0.15-0.15c-0.2-0.2-0.38-0.43-0.52-0.67s-0.23-0.49-0.27-0.75c-0.04-0.25-0.04-0.5 0.02-0.76s0.18-0.52 0.37-0.78l-1.1-1.1c-0.25 0.19-0.51 0.32-0.78 0.37-0.26 0.06-0.51 0.06-0.76 0.02-0.25-0.05-0.5-0.14-0.75-0.27-0.24-0.14-0.47-0.32-0.67-0.52l-0.16-0.15 0.57-0.57 0.15 0.16c0.68 0.68 1.3 0.83 1.9 0.46l-1.3-1.3 0.56-0.56 1.3 1.3c0.37-0.57 0.22-1.2-0.46-1.9l-0.15-0.16 0.56-0.56 0.15 0.16c0.2 0.2 0.38 0.42 0.52 0.66 0.14 0.25 0.23 0.5 0.27 0.75 0.05 0.25 0.04 0.51-0.01 0.77-0.06 0.26-0.18 0.52-0.38 0.78l1.1 1.1c0.26-0.2 0.52-0.32 0.78-0.38 0.26-0.05 0.52-0.06 0.77-0.01 0.25 0.04 0.5 0.13 0.75 0.27 0.24 0.14 0.46 0.32 0.66 0.52l0.16 0.15-0.57 0.56-0.15-0.15c-0.69-0.69-1.3-0.85-1.9-0.47l1.3 1.3z" aria-label="ᛯ"/>
    <path d="m121 161c-0.23 0.14-0.41 0.32-0.56 0.52-0.17 0.21-0.29 0.43-0.37 0.67-0.09 0.23-0.13 0.47-0.14 0.72 0 0.26 0.05 0.51 0.16 0.78l0.02 0.05-0.73 0.3-0.03-0.07c-0.13-0.32-0.2-0.65-0.2-0.99s0.06-0.67 0.19-0.99c0.12-0.32 0.29-0.63 0.53-0.93 0.24-0.29 0.52-0.56 0.85-0.8l-0.35-0.85c-0.28 0.18-0.54 0.39-0.77 0.61-0.23 0.23-0.43 0.48-0.61 0.74s-0.33 0.53-0.44 0.82c-0.11 0.3-0.19 0.6-0.25 0.89-0.05 0.31-0.06 0.61-0.03 0.92 0.04 0.31 0.11 0.61 0.24 0.9l0.02 0.06-0.74 0.3-0.03-0.07c-0.14-0.33-0.23-0.68-0.28-1-0.04-0.36-0.05-0.72-0.01-1.1 0.04-0.36 0.12-0.72 0.26-1.1s0.31-0.7 0.52-1c0.22-0.33 0.48-0.64 0.77-0.94 0.29-0.29 0.63-0.56 1-0.82l-0.88-2.1 0.76-0.32 2.7 6.4-0.76 0.32z" aria-label="ᚠ "/>
    <path d="m89 164h0.82l4e-3 1.8 2.5 0.9-6e-3 -2.8h0.82l0.015 7h-0.82l-4e-3 -1.6-2.5-0.89 6e-3 2.5h-0.82zm3.3 3.5-2.5-0.9 3e-3 1 2.5 0.9z" aria-label="ᚻ"/>
    <path d="m63 164h-0.018c-0.14 0.15-0.28 0.31-0.43 0.47-0.15 0.15-0.31 0.31-0.49 0.47l-0.85 0.77-0.8-0.33 1.7-1.5-0.25-1.7 1.4-1-0.18-2.3 0.85 0.34 0.056 1.2c0.015 0.24 0.015 0.48-1e-3 0.73-0.012 0.24-0.037 0.47-0.074 0.69l0.019 0.01 0.9-2.2 0.6 0.24-0.9 2.2 0.018 0.01c0.14-0.18 0.3-0.35 0.47-0.53 0.16-0.17 0.34-0.34 0.53-0.51l0.89-0.79 0.8 0.33-1.8 1.5 0.27 1.6-1.4 1 0.14 2.2-0.85-0.35-0.065-1.2c-9e-3 -0.24-6e-3 -0.46 9e-3 -0.67 0.013-0.21 0.031-0.42 0.056-0.62l-0.019-0.01-0.86 2.1-0.6-0.24zm0.22-2.1-0.78 0.6 0.13 0.99 0.76-0.6zm1.6 0.7-0.75 0.58 0.11 0.98 0.79-0.62z" aria-label="ᛤ"/>
    <path d="m41 144c0.2 0.25 0.34 0.51 0.41 0.78 0.075 0.27 0.092 0.53 0.051 0.8-0.034 0.26-0.12 0.52-0.27 0.78s-0.34 0.51-0.58 0.75c-0.25 0.25-0.51 0.45-0.79 0.61-0.27 0.14-0.54 0.23-0.82 0.27-0.27 0.04-0.54 0.03-0.8-0.05s-0.51-0.2-0.75-0.38l-0.61 0.61-0.54-0.54 0.6-0.59c-0.19-0.24-0.33-0.49-0.41-0.75-0.079-0.26-0.1-0.52-0.068-0.78s0.12-0.53 0.27-0.79c0.14-0.26 0.34-0.53 0.6-0.79 0.23-0.22 0.47-0.41 0.74-0.55 0.26-0.15 0.53-0.24 0.8-0.29s0.54-0.04 0.82 0.03 0.53 0.2 0.78 0.38l0.65-0.65 0.54 0.54zm-3 0.39c-0.36 0.36-0.6 0.72-0.7 1.1-0.091 0.34-0.034 0.67 0.17 0.99l2.6-2.6c-0.32-0.2-0.65-0.26-0.99-0.17s-0.69 0.31-1.1 0.68zm2.1 2c0.35-0.35 0.57-0.71 0.65-1.1 0.08-0.35 0.023-0.68-0.17-0.98l-2.6 2.6c0.31 0.19 0.64 0.24 1 0.15 0.35-0.1 0.71-0.33 1.1-0.7z" aria-label="ᛰ"/>
    <path d="m18 120 0.87-0.36 1.4 0.61-0.17 0.55c-0.033 0.1-0.066 0.2-0.099 0.29-0.036 0.09-0.083 0.18-0.14 0.28l5.5-2.3 0.31 0.76-5.5 2.3c0.12 0.03 0.22 0.07 0.31 0.1 0.088 0.04 0.18 0.08 0.27 0.13l0.52 0.27-0.57 1.4-0.87 0.36 0.55-1.5-1.5-0.75 0.51-1.6z" aria-label="ᛠ"/>
    <path d="m15 90c-0.33 1e-3 -0.65 0.05-0.95 0.15-0.3 0.096-0.57 0.24-0.8 0.43-0.23 0.18-0.42 0.42-0.55 0.7-0.14 0.28-0.2 0.61-0.2 0.98l1e-3 0.48 1.2-2e-3c0.02-0.28 0.07-0.54 0.15-0.78 0.078-0.22 0.2-0.4 0.37-0.55 0.18-0.15 0.42-0.26 0.7-0.33 0.3-0.079 0.67-0.12 1.1-0.12l2.8-6e-3 2e-3 0.82-2.8 6e-3c-0.28 1e-3 -0.52 0.016-0.72 0.044-0.2 0.031-0.37 0.084-0.5 0.16-0.13 0.072-0.23 0.17-0.3 0.3-0.068 0.12-0.11 0.27-0.14 0.45l4.2-0.01 2e-3 0.83-7 0.015-3e-3 -1.3c-1e-3 -0.47 0.073-0.88 0.22-1.3 0.15-0.37 0.35-0.68 0.62-0.95s0.6-0.48 1-0.63c0.38-0.14 0.82-0.22 1.3-0.22l3.8-8e-3 2e-3 0.82z" aria-label="ᚥ"/>
    <path d="m24 63-0.62-0.25 0.41-1-1.6-0.65-0.11 2.5-0.25 0.62-2.2-0.89-0.4 0.97-0.62-0.25 0.4-0.97-1.1-0.45 0.31-0.76 1.1 0.45 0.42-1 0.62 0.25-0.42 1 1.4 0.56 0.11-2.5 0.25-0.62 2.3 0.94 0.4-0.97 0.62 0.25-0.4 0.97 1.1 0.45-0.31 0.76-1.1-0.45z" aria-label="ᛪ"/>
    <path d="m36 39-0.42-3.3 3.3 0.42 0.15 0.15 0.37 2.7 2.2 0.32-0.65 0.65-1.4-0.2 0.2 1.4-0.65 0.65-0.32-2.2-2.7-0.37zm2.7-0.2-0.31-2-2-0.31 0.31 2z" aria-label="ᛟ"/>
    <path d="m63 25-0.76 0.31-0.82-2-1.2 1.1-0.3-0.74 1.2-1.1-0.39-0.94-1.2 1.1-0.3-0.74 1.2-1.1-0.85-2 0.76-0.31z" aria-label="ᚮ"/>
    <path d="m91 16c-1e-3 -0.23 0.062-0.44 0.19-0.62 0.13-0.18 0.29-0.32 0.5-0.4l-2e-3 -1.3-1.6 1.3-2e-3 -0.92 1.8-1.4 0.6-1e-3 5e-3 2.4c0.2 0.081 0.37 0.21 0.5 0.4 0.13 0.18 0.19 0.39 0.19 0.62 0 0.12-0.018 0.22-0.054 0.33-0.032 0.1-0.079 0.2-0.14 0.3-0.058 0.088-0.13 0.17-0.21 0.24-0.085 0.069-0.18 0.12-0.28 0.16l6e-3 2.5-0.82 2e-3 -6e-3 -2.5c-0.1-0.038-0.19-0.091-0.28-0.16-0.083-0.068-0.16-0.15-0.22-0.23-0.059-0.088-0.11-0.19-0.14-0.3-0.031-0.11-0.048-0.22-0.048-0.32z" aria-label="ᛑ "/>
    <path d="m121 21 0.77 4.1-0.87-0.36-0.21-1.3c-0.02-0.14-0.04-0.28-0.06-0.4s-0.03-0.25-0.05-0.37c-0.01-0.12-0.02-0.24-0.02-0.36-0.01-0.12-0.02-0.24-0.02-0.36l-0.02-7e-3c-0.06 0.19-0.12 0.39-0.19 0.59s-0.15 0.42-0.24 0.65l-0.42 1-0.76-0.31 0.42-1c0.09-0.23 0.18-0.44 0.28-0.64 0.09-0.2 0.19-0.38 0.28-0.56l-0.02-8e-3c-0.09 0.082-0.18 0.16-0.26 0.24-0.09 0.078-0.18 0.16-0.28 0.24-0.09 0.074-0.18 0.15-0.28 0.23-0.11 0.077-0.21 0.16-0.33 0.24l-1 0.76-0.88-0.36 3.4-2.4 1.3-3.2 0.76 0.31z" aria-label="ᛣ"/>
    <path d="m149 37-0.65 0.65-1.5-0.017-0.06-0.56c0-0.1-0.01-0.2-0.01-0.29s0-0.2 0.02-0.31l-4.1 4.1-0.56-0.56 4.1-4.1c-0.12 0.014-0.23 0.022-0.32 0.024-0.09 0-0.19-5e-3 -0.29-0.014l-0.56-0.051-0.01-1.5 0.64-0.65 0.05 1.5 1.6 0.12 0.12 1.6z" aria-label="ᛠ"/>
    <path d="m137 162-2.6-0.96 0.05-2.8-0.81-1.2 0.71-0.48 0.81 1.2 2.7 0.99-0.08 2.8 0.8 1.2-0.7 0.48zm-1.4-3.6-0.02 0.02c0.08 0.09 0.16 0.19 0.26 0.31 0.09 0.12 0.19 0.27 0.32 0.45l0.44 0.64 0.16 0.24c0.05 0.08 0.09 0.14 0.13 0.2 0.03 0.06 0.07 0.12 0.1 0.17l0.09 0.17 0.02-0.01 0.03-1.6zm0.8 2.6 0.02-0.01c-0.07-0.1-0.16-0.2-0.24-0.32-0.09-0.11-0.19-0.25-0.31-0.43l-0.44-0.64c-0.13-0.19-0.23-0.35-0.3-0.47-0.08-0.12-0.15-0.24-0.21-0.34h-0.01l-0.02 1.6z" aria-label="ᛄ"/>
    <path d="m106 167 0.88 4.4c0.36-0.03 0.67 0.02 0.95 0.13 0.27 0.11 0.51 0.26 0.71 0.45 0.2 0.2 0.38 0.43 0.52 0.71 0.13 0.28 0.23 0.58 0.29 0.89l0.05 0.23-0.86 0.17-0.05-0.23c-0.21-1.1-0.69-1.6-1.4-1.6l0.41 2-0.86 0.17-0.41-2c-0.7 0.3-0.94 0.98-0.73 2l0.05 0.23-0.86 0.17-0.05-0.23c-0.06-0.31-0.08-0.62-0.06-0.93s0.08-0.6 0.21-0.86c0.11-0.25 0.27-0.48 0.48-0.69 0.21-0.2 0.49-0.36 0.82-0.49l-0.88-4.4z" aria-label="ᛘ"/>
    <path d="m74 175 1.4-7.3 0.81 0.16 1.3 1.4 1.8-0.82 0.81 0.16-1.4 7.3-0.81-0.16-1.3-1.4-1.8 0.82zm4.7-3.4-1.3-1.4-1.7 0.77-0.24 1.2 1.3 1.4 1.7-0.77zm-3.5 1.4-0.26 1.3 1.1-0.47zm0.82-4.2-0.26 1.3 1.1-0.47zm2.9 1.9 0.26-1.3-1.1 0.47zm-0.82 4.2 0.26-1.3-1.1 0.47z" aria-label="ᛥ"/>
    <path d="m43 162 1.2-1.7c-0.71-0.29-1.4 0.02-2 0.91l-0.14 0.2-0.73-0.5 0.14-0.19c0.18-0.27 0.39-0.5 0.62-0.71 0.23-0.2 0.49-0.35 0.76-0.45 0.26-0.09 0.54-0.14 0.84-0.13 0.29 0.01 0.6 0.09 0.93 0.24l0.96-1.4c-0.27-0.24-0.46-0.49-0.57-0.77-0.12-0.27-0.17-0.55-0.18-0.83-5e-3 -0.28 0.042-0.57 0.14-0.87 0.1-0.29 0.25-0.57 0.43-0.84l0.14-0.2 0.73 0.5-0.14 0.2c-0.6 0.88-0.64 1.6-0.11 2.2l1.2-1.7 0.73 0.49-1.2 1.7c0.71 0.29 1.4-0.01 2-0.89l0.14-0.2 0.73 0.5-0.14 0.2c-0.18 0.26-0.39 0.5-0.62 0.7-0.24 0.21-0.49 0.36-0.76 0.45-0.26 0.1-0.54 0.15-0.84 0.14-0.3 0-0.6-0.09-0.93-0.24l-0.96 1.4c0.27 0.24 0.46 0.5 0.57 0.78 0.12 0.27 0.17 0.55 0.18 0.83 5e-3 0.28-0.042 0.57-0.14 0.87-0.11 0.29-0.25 0.57-0.43 0.83l-0.14 0.2-0.73-0.5 0.14-0.19c0.61-0.9 0.65-1.6 0.13-2.2l-1.2 1.7z" aria-label="ᛯ"/>
    <path d="m23 138c-0.2-0.21-0.43-0.36-0.68-0.47-0.25-0.13-0.51-0.21-0.78-0.25-0.26-0.03-0.52-0.03-0.79 0.03-0.26 0.05-0.52 0.16-0.77 0.33l-0.053 0.04-0.48-0.71 0.068-0.05c0.31-0.2 0.64-0.35 1-0.42s0.72-0.08 1.1-0.03c0.36 0.06 0.72 0.18 1.1 0.36 0.36 0.19 0.71 0.42 1 0.72l0.81-0.56c-0.26-0.25-0.53-0.48-0.81-0.67-0.29-0.19-0.59-0.35-0.91-0.48-0.31-0.13-0.63-0.22-0.96-0.28-0.34-0.05-0.66-0.07-0.98-0.07-0.33 0.02-0.66 0.08-0.97 0.18-0.32 0.11-0.61 0.25-0.89 0.44l-0.053 0.04-0.48-0.71 0.068-0.04c0.32-0.22 0.67-0.4 1-0.52 0.36-0.13 0.74-0.21 1.1-0.25 0.38-0.04 0.77-0.03 1.2 0.03 0.41 0.07 0.8 0.17 1.2 0.32 0.39 0.16 0.77 0.37 1.2 0.6 0.37 0.24 0.73 0.54 1.1 0.88l2-1.4 0.5 0.72-6.2 4.2-0.5-0.72z" aria-label="ᚠ "/>
    <path d="m15 105 0.17 0.85-1.9 0.38-0.42 2.8 2.9-0.57 0.17 0.86-7.3 1.4-0.17-0.86 1.7-0.33 0.42-2.8-2.6 0.52-0.17-0.86zm-3 4.1 0.42-2.8-1 0.2-0.42 2.8z" aria-label="ᚻ"/>
    <path d="m9.8 75 4e-3 -0.021c-0.19-0.11-0.39-0.23-0.58-0.35s-0.39-0.26-0.59-0.41l-0.99-0.73 0.18-0.91 1.9 1.4 1.7-0.61 1.3 1.2 2.4-0.67-0.19 0.96-1.2 0.3c-0.25 0.065-0.5 0.12-0.76 0.15-0.26 0.037-0.51 0.059-0.74 0.065l-4e-3 0.021 2.5 0.49-0.13 0.68-2.5-0.49-4e-3 0.02c0.21 0.11 0.43 0.24 0.65 0.38 0.21 0.14 0.42 0.29 0.64 0.45l1 0.77-0.18 0.91-2-1.6-1.7 0.62-1.4-1.2-2.3 0.61 0.19-0.96 1.2-0.31c0.25-0.058 0.48-0.1 0.7-0.13s0.44-0.053 0.66-0.07l4e-3 -0.02-2.4-0.46 0.13-0.68zm2.3-0.21-0.78-0.69-1 0.34 0.79 0.67zm-0.39 1.9-0.76-0.66-1 0.32 0.81 0.7z" aria-label="ᛤ"/>
    <path d="m26 48c-0.23 0.27-0.49 0.47-0.77 0.6-0.27 0.14-0.56 0.21-0.86 0.22-0.29 0.017-0.59-0.028-0.91-0.14-0.31-0.11-0.62-0.26-0.93-0.48-0.32-0.22-0.6-0.46-0.82-0.73-0.21-0.26-0.36-0.54-0.46-0.83-0.11-0.29-0.14-0.58-0.11-0.88 0.027-0.3 0.11-0.6 0.25-0.89l-0.79-0.54 0.48-0.7 0.77 0.52c0.22-0.26 0.46-0.46 0.73-0.6s0.55-0.22 0.84-0.24c0.29-0.016 0.59 0.029 0.91 0.14 0.32 0.1 0.65 0.26 0.98 0.49 0.29 0.2 0.55 0.43 0.76 0.69s0.37 0.52 0.48 0.81c0.1 0.29 0.15 0.58 0.13 0.9s-0.1 0.62-0.25 0.93l0.84 0.57-0.48 0.7zm-1-3.2c-0.47-0.32-0.91-0.5-1.3-0.54-0.39-0.028-0.74 0.1-1 0.39l3.3 2.2c0.16-0.39 0.15-0.76-0.018-1.1-0.17-0.35-0.49-0.69-0.96-1zm-1.8 2.7c0.46 0.31 0.88 0.47 1.3 0.49s0.74-0.12 1-0.39l-3.3-2.2c-0.14 0.38-0.13 0.75 0.04 1.1 0.18 0.36 0.51 0.7 0.98 1z" aria-label="ᛰ"/>
    <path d="m47 20 0.57 0.84-0.32 1.6-0.62-0.06c-0.11-0.013-0.22-0.026-0.32-0.041-0.1-0.019-0.21-0.047-0.33-0.085l3.6 5.3-0.73 0.5-3.6-5.3c-9e-3 0.13-0.022 0.24-0.039 0.35-0.019 0.1-0.043 0.2-0.073 0.31l-0.17 0.6-1.6-0.29-0.57-0.84 1.7 0.26 0.46-1.7 1.7 0.2z" aria-label="ᛠ"/>
    <path d="m77 11c-0.069-0.35-0.19-0.67-0.35-0.96s-0.36-0.54-0.61-0.74c-0.24-0.2-0.52-0.35-0.84-0.43-0.32-0.083-0.68-0.087-1.1-0.01l-0.49 0.099 0.25 1.2c0.3-0.039 0.58-0.039 0.84-3e-3 0.24 0.036 0.46 0.13 0.65 0.28 0.19 0.16 0.35 0.38 0.48 0.66 0.14 0.3 0.26 0.67 0.35 1.1l0.57 2.9-0.86 0.17-0.57-2.9c-0.059-0.3-0.12-0.54-0.2-0.74-0.073-0.2-0.16-0.36-0.27-0.49-0.1-0.12-0.23-0.2-0.37-0.25-0.14-0.046-0.3-0.063-0.5-0.049l0.88 4.4-0.86 0.17-1.5-7.3 1.4-0.28c0.49-0.097 0.94-0.11 1.3-0.026 0.41 0.076 0.78 0.23 1.1 0.45 0.33 0.22 0.62 0.53 0.86 0.91 0.23 0.37 0.4 0.81 0.5 1.3l0.78 3.9-0.86 0.17z" aria-label="ᚥ"/>
    <path d="m107 14 0.13-0.7 1.2 0.22 0.35-1.8-2.6 0.4-0.71-0.14 0.49-2.5-1.1-0.21 0.13-0.7 1.1 0.21 0.24-1.2 0.86 0.17-0.25 1.2 1.2 0.23-0.13 0.7-1.2-0.23-0.31 1.6 2.6-0.4 0.71 0.14-0.51 2.6 1.1 0.21-0.14 0.7-1.1-0.21-0.25 1.2-0.85-0.17 0.24-1.2z" aria-label="ᛪ"/>
    <path d="m137 21 3.5-1.1 0.22 3.7-0.14 0.2-2.8 0.95 0.09 2.4-0.84-0.57-0.07-1.6-1.5 0.52-0.84-0.57 2.3-0.8-0.14-3zm0.77 2.9 2.2-0.75-0.08-2.3-2.2 0.75z" aria-label="ᛟ"/>
    <path d="m157 49-0.5-0.73 1.9-1.3-1.4-1.1 0.7-0.48 1.4 1 0.9-0.62-1.4-1.1 0.7-0.48 1.4 1 2-1.3 0.49 0.73z" aria-label="ᚮ"/>
    <path d="m170 74c0.24-0.048 0.47-0.026 0.69 0.068 0.21 0.093 0.39 0.24 0.52 0.44l1.4-0.28-1.6-1.4 0.96-0.19 1.8 1.6 0.13 0.62-2.5 0.5c-0.05 0.22-0.15 0.43-0.31 0.6-0.17 0.17-0.37 0.28-0.62 0.33-0.12 0.024-0.23 0.028-0.34 0.01-0.12-0.011-0.23-0.04-0.35-0.086-0.1-0.042-0.2-0.099-0.29-0.17-0.08-0.074-0.16-0.16-0.22-0.25l-2.6 0.52-0.17-0.86 2.6-0.52c0.02-0.11 0.06-0.22 0.11-0.32s0.12-0.19 0.2-0.28c0.08-0.079 0.17-0.15 0.28-0.21 0.11-0.055 0.21-0.094 0.33-0.12z" aria-label="ᛑ "/>
    <path d="m172 107-4.1 1.6 0.19-0.99 1.3-0.48c0.15-0.05 0.28-0.1 0.41-0.14 0.13-0.05 0.25-0.09 0.37-0.13 0.13-0.04 0.25-0.07 0.38-0.1 0.12-0.03 0.24-0.07 0.37-0.1v-0.02c-0.21-0.02-0.43-0.04-0.66-0.08-0.23-0.02-0.47-0.06-0.73-0.11l-1.2-0.23 0.17-0.86 1.1 0.23c0.26 0.05 0.51 0.1 0.73 0.16s0.43 0.12 0.64 0.18v-0.02c-0.1-0.08-0.2-0.15-0.3-0.23-0.1-0.07-0.21-0.15-0.31-0.23-0.09-0.08-0.19-0.17-0.3-0.26-0.1-0.09-0.21-0.18-0.32-0.29l-1-0.92 0.2-0.99 3.2 3.1 3.6 0.71-0.17 0.86z" aria-label="ᛣ"/>
    <path d="m160 140-0.84-0.57-0.28-1.6 0.6-0.17c0.11-0.03 0.21-0.06 0.31-0.08s0.21-0.04 0.34-0.04l-5.3-3.6 0.49-0.73 5.3 3.6c-0.04-0.12-0.07-0.24-0.09-0.34s-0.03-0.2-0.04-0.31l-0.06-0.62 1.6-0.33 0.84 0.57-1.6 0.37 0.2 1.8-1.7 0.45z" aria-label="ᛠ"/>
    <path d="m58 55 4.8 4.8-0.53 0.53-1.7 0.27-0.27 1.7-0.53 0.53-4.8-4.8 0.53-0.53 1.7-0.27 0.27-1.7zm0.17 5.3 1.7-0.29 0.31-1.7-0.78-0.78-1.7 0.31-0.29 1.7zm0.71-3.4-0.87-0.87-0.19 1zm2.7 2.7-0.87-0.87-0.19 1zm-2.9 1.2 0.85 0.85 0.19-1zm-2.7-2.7 0.85 0.85 0.19-1z" aria-label="ᛥ"/>
    <path d="m72 141-0.76-0.31 0.81-2-1.7-0.09 0.3-0.73 1.7 0.06 0.38-0.94-1.7-0.09 0.3-0.74 1.7 0.07 0.84-2 0.76 0.31z" aria-label="ᚮ"/>
    <path d="m126 58 0.01 0.014c0.19-0.089 0.37-0.17 0.56-0.26 0.19-0.081 0.4-0.16 0.61-0.24l1.1-0.37 0.59 0.6-2 0.68-0.4 1.6-1.6 0.39-0.69 2.1-0.63-0.63 0.39-1.1c0.08-0.22 0.17-0.43 0.27-0.65 0.1-0.21 0.21-0.41 0.33-0.59l-0.02-0.013-1.6 1.6-0.44-0.44 1.6-1.6-0.01-0.014c-0.19 0.1-0.4 0.2-0.62 0.3-0.21 0.086-0.43 0.17-0.66 0.26l-1.1 0.37-0.6-0.6 2.2-0.68 0.37-1.6 1.6-0.41 0.7-2 0.63 0.63-0.38 1.1c-0.08 0.22-0.16 0.41-0.25 0.59s-0.19 0.36-0.29 0.53l0.02 0.013 1.5-1.5 0.45 0.44zm-0.99 1.8 0.92-0.24 0.26-0.94-0.9 0.26zm-1.2-1.2 0.89-0.24 0.27-0.92-0.94 0.26z" aria-label="ᛤ"/>
    <path d="m44 91 2.1-1.6 2.2 1.5 1.4-3e-3 2e-3 0.8-1.4 3e-3 -2.2 1.6-2.2-1.5-1.3 3e-3 -2e-3 -0.8zm3.5 0.77v-0.02c-0.11 0.01-0.24 0.021-0.38 0.031-0.14 7e-3 -0.32 0.011-0.52 0.011l-0.72 2e-3h-0.28c-0.082-3e-3 -0.16-4e-3 -0.22-4e-3 -0.068-3e-3 -0.13-7e-3 -0.19-0.01l-0.18-0.02v0.021l1.2 0.87zm-2.5-0.77v0.02c0.11-0.011 0.24-0.019 0.38-0.026 0.13-7e-3 0.29-0.011 0.5-0.011l0.72-2e-3c0.22 0 0.39 2e-3 0.52 9e-3 0.14 3e-3 0.26 0.011 0.38 0.024v-0.015l-1.3-0.87z" aria-label="ᛄ"/>
    <path d="m92 135c0.35 0.04 0.65 0.14 0.91 0.29 0.26 0.14 0.48 0.33 0.65 0.57 0.17 0.22 0.3 0.49 0.39 0.8 0.087 0.31 0.13 0.65 0.13 1 1e-3 0.38-0.044 0.73-0.14 1.1-0.094 0.32-0.23 0.59-0.41 0.84-0.17 0.24-0.39 0.43-0.65 0.57-0.26 0.15-0.54 0.24-0.86 0.29l3e-3 0.93-0.83 0.01-3e-3 -0.91c-0.33-0.04-0.62-0.13-0.88-0.26-0.26-0.14-0.48-0.32-0.65-0.54-0.17-0.23-0.3-0.5-0.39-0.81-0.097-0.31-0.15-0.67-0.15-1.1-1e-3 -0.35 0.044-0.68 0.14-0.99 0.087-0.31 0.22-0.59 0.39-0.84 0.17-0.24 0.39-0.44 0.65-0.6 0.26-0.15 0.55-0.26 0.88-0.31l-3e-3 -0.99h0.83zm-2 2.6c2e-3 0.56 0.098 1 0.29 1.4 0.19 0.33 0.49 0.54 0.89 0.62l-0.013-3.9c-0.4 0.09-0.69 0.3-0.88 0.63s-0.28 0.77-0.28 1.3zm3.1-0.03c-2e-3 -0.54-0.11-0.97-0.32-1.3s-0.5-0.53-0.89-0.62l0.013 3.9c0.38-0.09 0.68-0.31 0.88-0.65 0.19-0.35 0.28-0.8 0.28-1.4z" aria-label="ᛰ"/>
    <path d="m49 73-1.9-0.79c-0.14 0.73 0.28 1.3 1.3 1.7l0.22 0.09-0.33 0.79-0.22-0.09c-0.29-0.12-0.55-0.27-0.8-0.46-0.24-0.18-0.44-0.39-0.58-0.64-0.15-0.23-0.25-0.49-0.3-0.77-0.047-0.28-0.03-0.6 0.052-0.94l-1.5-0.64c-0.18 0.3-0.39 0.53-0.63 0.7-0.24 0.16-0.49 0.28-0.76 0.33-0.27 0.061-0.56 0.073-0.86 0.036-0.3-0.041-0.6-0.12-0.88-0.24l-0.22-0.09 0.33-0.79 0.22 0.09c0.96 0.4 1.7 0.29 2.1-0.32l-1.9-0.78 0.33-0.79 1.9 0.78c0.14-0.73-0.28-1.3-1.2-1.7l-0.22-0.09 0.33-0.79 0.22 0.09c0.29 0.12 0.55 0.27 0.8 0.45 0.24 0.19 0.44 0.4 0.58 0.64 0.15 0.23 0.25 0.49 0.3 0.77 0.051 0.28 0.033 0.6-0.052 0.94l1.5 0.64c0.18-0.3 0.39-0.53 0.63-0.7 0.24-0.16 0.49-0.28 0.76-0.33 0.27-0.06 0.56-0.072 0.86-0.036 0.3 0.045 0.6 0.13 0.88 0.25l0.22 0.09-0.33 0.79-0.22-0.09c-0.98-0.41-1.7-0.3-2.1 0.31l1.9 0.79z" aria-label="ᛯ"/>
    <path d="m123 125c0.23 0.23 0.47 0.41 0.74 0.55s0.55 0.22 0.84 0.25c0.28 0.04 0.56 0 0.85-0.1 0.28-0.1 0.55-0.27 0.8-0.52l0.32-0.33-0.81-0.81c-0.21 0.18-0.42 0.32-0.63 0.42-0.2 0.1-0.41 0.13-0.63 0.12-0.23-0.02-0.46-0.11-0.7-0.26-0.26-0.15-0.53-0.37-0.83-0.66l-1.9-1.9 0.56-0.56 1.9 1.9c0.2 0.19 0.37 0.34 0.52 0.46 0.16 0.12 0.31 0.19 0.45 0.23s0.28 0.04 0.41 0c0.13-0.03 0.26-0.1 0.4-0.21l-2.9-2.9 0.56-0.56 4.8 4.8-0.9 0.9c-0.32 0.32-0.65 0.55-1 0.7s-0.71 0.22-1.1 0.22c-0.37 0-0.73-0.09-1.1-0.26-0.36-0.16-0.71-0.41-1-0.75l-2.6-2.6 0.56-0.56z" aria-label="ᚥ"/>
    <path d="m94 41 4e-3 0.99-1.1 1.1-0.47-0.39c-0.082-0.071-0.16-0.14-0.24-0.21-0.071-0.07-0.14-0.15-0.22-0.25l0.021 6.2-0.86 2e-3 -0.021-6.2c-0.078 0.099-0.15 0.19-0.22 0.26-0.07 0.071-0.15 0.14-0.23 0.21l-0.47 0.39-1.1-1.1-3e-3 -0.99 1.2 1.1 1.3-1.1 1.3 1.1z" aria-label="ᛠ"/>
    <path d="m109 137 0.91-3.3 3 1.7 0.09 0.21-0.7 2.7 1.9 1.2-0.88 0.36-1.3-0.76-0.37 1.4-0.88 0.36 0.55-2.2-2.4-1.4zm2.6 0.88 0.52-2.1-1.8-1.1-0.52 2.1z" aria-label="ᛟ"/>
    <path d="m138 92c0-0.14 0.04-0.26 0.14-0.35s0.21-0.14 0.35-0.14c0.06 0 0.13 0.01 0.18 0.032 0.07 0.026 0.12 0.06 0.16 0.1 0.05 0.043 0.08 0.094 0.11 0.15 0.03 0.062 0.05 0.13 0.05 0.2s-0.02 0.13-0.05 0.19c-0.03 0.062-0.06 0.12-0.1 0.16-0.05 0.045-0.1 0.081-0.16 0.11-0.06 0.025-0.12 0.038-0.19 0.038-0.14 0-0.26-0.046-0.35-0.14-0.1-0.094-0.14-0.21-0.14-0.35zm-3.2-0.84-0.01-0.82 7-0.015 0.01 0.82-0.85 1e-3c-0.07 0.43-0.16 0.82-0.3 1.2s-0.32 0.61-0.53 0.83-0.45 0.38-0.72 0.5c-0.28 0.11-0.59 0.17-0.92 0.17-0.34 0-0.65-0.055-0.93-0.17-0.28-0.11-0.53-0.28-0.75-0.5s-0.39-0.49-0.53-0.82-0.24-0.72-0.3-1.2zm1.9-4e-3c0.11 0.58 0.31 1 0.62 1.3 0.3 0.3 0.69 0.45 1.2 0.45 0.45-1e-3 0.83-0.15 1.1-0.45 0.3-0.3 0.5-0.74 0.62-1.3z" aria-label="ᚧ"/>
    <path d="m112 44c0.26 0.056 0.52 0.062 0.77 0.02 0.26-0.029 0.5-0.1 0.73-0.21 0.22-0.11 0.42-0.25 0.6-0.42s0.32-0.4 0.43-0.66l0.02-0.055 0.74 0.3-0.03 0.071c-0.13 0.32-0.32 0.6-0.56 0.84s-0.51 0.43-0.83 0.58c-0.3 0.14-0.65 0.24-1 0.28-0.38 0.044-0.77 0.036-1.2-0.022l-0.35 0.85c0.33 0.065 0.66 0.1 0.98 0.1 0.32-4e-3 0.64-0.035 0.95-0.095 0.31-0.059 0.61-0.15 0.89-0.28 0.29-0.13 0.55-0.28 0.8-0.45 0.25-0.18 0.47-0.4 0.67-0.64 0.19-0.24 0.35-0.51 0.47-0.8l0.02-0.055 0.73 0.3-0.02 0.071c-0.14 0.34-0.32 0.65-0.54 0.94s-0.47 0.54-0.74 0.77c-0.28 0.23-0.59 0.42-0.94 0.58s-0.71 0.28-1.1 0.36c-0.39 0.074-0.79 0.12-1.2 0.12-0.41 4e-3 -0.85-0.038-1.3-0.12l-0.87 2.1-0.76-0.31 2.6-6.4 0.76 0.31zm1.2-0.78c-0.13-0.053-0.21-0.14-0.26-0.26s-0.05-0.25 0-0.37c0.03-0.059 0.06-0.11 0.1-0.16 0.05-0.047 0.1-0.083 0.16-0.11 0.05-0.025 0.11-0.039 0.18-0.042 0.07-4e-3 0.13 7e-3 0.19 0.032 0.07 0.026 0.12 0.064 0.16 0.11 0.05 0.048 0.08 0.1 0.11 0.16 0.02 0.059 0.03 0.12 0.03 0.19 0.01 0.063-0.01 0.12-0.03 0.18-0.05 0.13-0.14 0.22-0.26 0.27s-0.25 0.051-0.38-1e-3z" aria-label="ᚡ"/>
    <path d="m135 74 3-1.2 0.59-3.5 0.43-0.18 2.6 2.2 0.31 0.76-6.4 2.7zm4.1-3.8-0.35 2.2 0.02 0.044 2-0.83-0.02-0.044z" aria-label="ᛩ"/>
    <path d="m138 113 0.06-1.7-3.9-1.6 0.31-0.76 2 0.8 0.06-1.7 0.74 0.3-0.06 1.7 0.94 0.39 0.06-1.7 0.74 0.31-0.06 1.7 2 0.84-0.31 0.76-1.8-0.73-0.06 1.7z" aria-label="ᚰ"/>
    <path d="m61 122 0.41 0.41 0.26 2.2-0.63 0.63-0.22-1.9-4.1 4.1-0.56-0.56z" aria-label="ᛚ"/>
    <path d="m41 110 6.4-2.7 0.31 0.76-2.3 0.94-1 1.9 2.1 0.66 2.3-0.94 0.31 0.76-6.4 2.7-0.3-0.73 1.1-2-2.2-0.67zm2.8 2.1c-0.077 0.14-0.16 0.27-0.24 0.4-0.078 0.12-0.16 0.24-0.25 0.37l0.017 0.04c0.1-0.06 0.22-0.12 0.33-0.18 0.11-0.05 0.22-0.1 0.34-0.15l0.99-0.41c0.11-0.05 0.23-0.09 0.35-0.13 0.11-0.04 0.22-0.07 0.34-0.1l-0.018-0.05c-0.15-0.03-0.28-0.06-0.42-0.09-0.14-0.04-0.29-0.07-0.45-0.11l-0.65-0.22zm0.31-2c0.077-0.15 0.15-0.28 0.22-0.39s0.15-0.23 0.23-0.36l-0.019-0.04c-0.098 0.06-0.2 0.11-0.31 0.17-0.1 0.05-0.21 0.1-0.32 0.14l-0.99 0.41c-0.11 0.04-0.22 0.08-0.33 0.12s-0.23 0.07-0.34 0.1l0.019 0.04c0.14 0.04 0.28 0.07 0.42 0.1 0.13 0.03 0.27 0.07 0.43 0.12l0.65 0.21z" aria-label="ᛗ"/>
    <path d="m71 46c-0.089-0.22-0.11-0.43-0.063-0.65s0.15-0.4 0.31-0.56l-0.92-2.2 0.76-0.31 0.92 2.2c0.22-1e-3 0.42 0.059 0.61 0.18 0.19 0.12 0.32 0.29 0.41 0.5 0.044 0.11 0.068 0.21 0.073 0.32 0.01 0.11 5e-3 0.22-0.015 0.33-0.022 0.1-0.058 0.2-0.11 0.3-0.052 0.095-0.12 0.18-0.19 0.25l0.95 2.3-0.76 0.31-0.95-2.3c-0.11 3e-3 -0.21-0.011-0.31-0.042-0.1-0.032-0.2-0.076-0.29-0.13-0.088-0.059-0.17-0.13-0.25-0.22-0.069-0.086-0.12-0.18-0.17-0.28z" aria-label="ᚽ"/>
  </g>
  <g id="script" font-family="sans-serif" letter-spacing="0px" stroke="#000001" word-spacing="0px">
    <text font-size="5px" stroke-width=".26" style="line-height:1.25;white-space:pre" xml:space="preserve"><textPath xlink:href="#path64">  ᚯᛤᛃᛇ   ᛟᚧᚭᛪ   ᛉ   ᛗ ᚸᛰᛰᛄᛒ   ᛰᛞᛣ   ᛮᚻ   ᚡᛣᚣᛟᛀᚪᚦᚠᛄᛍᛒᛞ   ᛟ   ᚧᛉᛋᛥᚽᛊᛢᛟᛰᛜᛃᛗᛝᛰ   ᚡᚻᛄᛥᛒ᛭   ᛯᛢᛗᛃ ᛗ    ᛍᛣ    ᚣᛄᚽᛘᚦᚯᚨᛃᚡ   ᚭᛯᛜᛍᚢᛃᛍ   ᛰᚧ   ᚪᚻᛰᛜᚦᛇᚻ᛭ᛜᛒᛠ   ᚣᚱ   ᛣᛪᛃᚱ᛭ᛤ ᚱᚠᛘ   ᛒᛤᛀᛘ   ᛞᛰᛒᚠᚦᛋᛜᛤᚩᚢ   ᛄᛥᛪᛘᚱᛍᚠᚧᛢᛗᛃ   ᛗᛀᚱᚡ᛭ᚩᚧᛝᛢᛯᚣᛀ   ᛞᚪᛢᛞᛇᚨ   ᛟᛝᚢ   ᚽᚸᛰᛰᚢᚣᚩᛀᚻᚨᛗᛘᛄᛀ   ᛇᛒᛮ᛭ᛇᚡ  ᛰ   ᛢᛯᚪᚧᛗᛰᚦ   ᚢᚦᚽᚯ ᛉᚪᚣᚨᛪᛊ   ᛞᛪᛮ ᚭᚦᛄᛤᛣ ᚯᚸᛉᚯ</textPath></text>
    <text font-size="4.7px" stroke-width=".25" style="line-height:1.25;white-space:pre" xml:space="preserve"><textPath xlink:href="#path63"> ᚣ  ᚦᛜᚠᛥ  ᛗ  ᛜ  ᛣᚨ  ᚩᛗᚽ ᚸᛝᚻ  ᛋᚠᛃᛄᚢᛪ  ᛭ᛃᛟᚢᛗᛄᚢᚩ  ᛍᛊᛇ ᚩᛠᚦᛊᚸᛤᛣᛉᛞᛥ  ᛠᚸ  ᛍᛥᚸᛠᛠᛟ  ᛝᚩᚯᛄᛟᛯ  ᚩᛊᛪ  ᛰᛀ  ᚣᛥᚸᚱ  ᚭᚡ  ᛥᚱᛒᛒᛠ   ᛣᛤᚩᛊᚪᛞᛜᚯᚻ  ᚸᛪᚭ ᚨᚱ    ᛉᚻᛣᚧ  ᚩᛍᚧᛞᛠᛯᛍᚸ  ᛝ  ᚦᛇᛇᛉᚭᚣᛣ  ᚪ  ᛢᛣᚨ  ᛤᛣᚣ  ᚦᚻᛯ  ᛗᛃ</textPath></text>
    <circle id="path63" cx="92" cy="92" r="57" display="none" fill="none"/>
    <circle id="path64" cx="92" cy="92" r="89" display="none" fill="none" stroke-width=".8"/>
  </g>
</svg>
