<?xml version="1.0" encoding="UTF-8"?>
<svg version="1.1" viewBox="0 0 500 500" xmlns="http://www.w3.org/2000/svg" xmlns:xlink="http://www.w3.org/1999/xlink">
  <defs>
    <mask id="mask48" maskUnits="userSpaceOnUse">
      <circle cx="250" cy="250" r="252" fill="url(#radialGradient48)" stroke-opacity="0"/>
    </mask>
    <radialGradient id="radialGradient48" cx="250" cy="250" r="252" gradientTransform="matrix(1 0 0 1 -2 -2)" gradientUnits="userSpaceOnUse">
      <stop offset="0"/>
      <stop offset=".62"/>
      <stop stop-color="#fff" offset="1"/>
    </radialGradient>
  </defs>
  <path d="m498 250c0 4.8-3.6 9.7-11 15-7 5.2-17 11-30 17-13 6-29 12-47 20-18 7.1-38 15-59 23-21 8.1-43 17-65 25-22 8.7-44 17-64 26-21 8.4-40 16-58 23-18 7-33 13-47 18-13 4.4-24 7.2-32 7.9-8.2 0.68-14-0.77-17-4.7-2.9-3.9-3.2-10-1.3-19 1.9-8.9 6-20 12-34 5.8-14 13-30 22-48 8.4-18 18-37 28-58 9.8-20 20-42 30-63 10-21 20-43 29-63 9.2-20 18-39 26-56 8-17 15-32 22-44s12-21 18-26c5.4-5.6 10-7.7 15-6.3 4.8 1.4 9.4 6.5 14 15 4.7 8.4 9.6 20 15 35 5.2 14 11 32 17 51 6 19 13 40 19 62 6.9 22 14 44 21 67 7.3 22 15 44 22 65 7 21 14 40 19 58 5.6 17 10 33 13 46 3.1 13 4.7 23 4.2 30-0.47 7.3-3 12-7.8 14-4.8 1.8-12 0.86-22-2.3-9.6-3.2-21-8.7-35-16-14-7.2-30-16-48-26-18-9.9-37-21-57-32-20-11-41-23-61-34-21-11-41-22-60-33-19-10-37-20-53-29-16-8.7-29-17-40-24-11-7-18-13-22-19-4.1-5.5-4.8-10-1.9-15 2.9-4.5 9.3-8.8 19-13 9.7-4.2 23-8.4 38-13 16-4.4 34-9 54-14 20-5 42-10 64-16 22-5.6 45-12 68-17s45-12 66-17c21-5.6 40-11 57-15 17-4.2 32-7.5 44-9.4 12-1.8 21-2.2 28-0.71 6.3 1.5 9.7 5 10 11 0.59 5.6-1.6 13-6.2 23-4.6 10-12 22-20 36-8.6 14-19 30-30 48-11 18-24 36-36 56-13 20-25 40-38 59-12 20-24 39-36 57-11 18-22 35-31 49s-18 27-25 36c-7.4 9.1-14 15-19 18-5.5 2.7-10 1.9-14-2.3-4.2-4.3-7.9-12-11-23-3.5-11-6.8-25-10-42-3.4-17-6.9-36-11-57-3.8-21-7.8-43-12-66-4.2-23-8.7-46-13-69-4.5-23-9-45-13-66-4.1-21-7.8-40-11-56-2.9-17-4.9-31-5.6-42-0.67-11 0.03-20 2.5-25 2.5-5.3 6.7-7.5 13-6.8 6.3 0.69 15 4.3 25 10 10 6 23 14 37 24 14 10 30 22 47 35 17 13 36 26 54 40 19 14 38 28 57 41 19 14 37 27 54 39 17 12 32 23 45 33 13 9.9 24 19 31 26 7.7 7.6 12 14 14 19 1.3 5.4-0.9 9.8-6.5 13-5.6 3.7-15 6.7-27 9.4-12 2.7-27 5.1-45 7.4-18 2.4-38 4.7-59 7.2-21 2.5-44 5.2-68 8.1-23 2.9-47 5.9-70 9-23 3-45 6.1-65 8.8s-39 5.1-55 6.7c-16 1.6-29 2.4-40 2-10-0.42-18-2.1-22-5.4-4.1-3.3-5-8.3-3-15 2-6.8 7-16 14-26 7.4-11 17-23 29-37 11-14 25-30 39-46 14-17 29-35 44-53 15-18 30-36 45-54 14-18 28-35 41-51 13-16 24-30 35-41 10-12 19-21 27-27 7.6-6.3 14-9.5 19-9.3 5 0.15 8.9 3.7 12 11 3.1 6.9 5.3 17 7 30 1.7 13 3.1 29 4.3 48 1.2 19 2.3 39 3.5 61 1.2 22 2.5 45 3.9 69 1.4 24 3 47 4.6 70 1.6 23 3.2 45 4.6 64 1.3 20 2.4 38 2.8 53 0.38 15 0.08 28-1.4 37-1.4 9.3-3.9 15-8 18-4 2.8-9.5 2.4-17-0.98-7.2-3.4-16-9.8-27-19-11-8.8-23-20-37-33-14-13-29-28-45-43-16-15-33-32-50-48-17-16-34-32-51-48s-32-30-47-43c-14-13-27-25-37-36-10-11-18-20-23-27-4.8-7.5-6.6-13-5.1-18 1.5-4.6 6.4-7.9 14-10 8.1-2.3 19-3.6 34-4.4 14-0.72 31-0.89 51-0.84 19 0.03 41 0.28 63 0.44 22 0.21 46 0.36 70 0.36 24 0 47-0.15 70-0.36 22-0.16 44-0.41 63-0.44 19-0.05 36 0.12 50 0.84 14 0.76 26 2.1 34 4.4 8.1 2.3 13 5.6 14 10 1.5 4.6-0.31 11-5.1 18-4.8 7.5-13 17-23 27-10 11-23 23-37 36-14 13-30 28-47 43-17 15-34 31-51 48-17 16-34 32-50 48-16 15-31 30-45 43-14 13-26 24-37 33-11 8.8-20 15-27 19-7.2 3.4-13 3.8-17 0.98-4-2.8-6.6-8.9-8-18-1.4-9.3-1.7-22-1.3-37 0.36-15 1.4-33 2.8-53 1.4-20 3-42 4.6-64 1.6-23 3.2-46 4.6-70 1.4-24 2.7-47 3.9-69 1.2-22 2.2-43 3.5-61 1.2-18 2.5-35 4.3-48 1.7-13 4-24 7-30 3.1-6.9 7-10 12-11 5.1-0.15 11 3.1 19 9.3 7.6 6.3 16 16 27 27 10 12 22 26 35 41 13 16 27 33 41 51 14 18 30 36 45 54 15 18 30 36 44 53 14 17 27 32 39 46 12 14 21 27 29 37s12 19 14 26c2 6.8 1.1 12-3 15-4.1 3.3-11 5-22 5.4-10 0.43-24-0.39-40-2-16-1.6-34-4-55-6.7s-42-5.8-65-8.8c-23-3-46-6.1-70-9-23-2.9-46-5.6-68-8.1-21-2.5-41-4.8-59-7.2-18-2.4-33-4.8-45-7.4-12-2.7-21-5.7-27-9.4-5.6-3.7-7.8-8.1-6.5-13 1.3-5.4 5.9-12 14-19 7.7-7.5 18-16 31-26 13-10 28-21 45-33 17-12 35-25 54-39 19-13 38-28 57-41 19-14 37-28 54-40 17-13 33-25 47-35 14-10 27-18 37-24 10-6 19-9.5 25-10 6.3-0.69 11 1.5 13 6.8 2.5 5.3 3.2 14 2.5 25-0.64 11-2.7 25-5.6 42-2.8 17-6.6 36-11 56-4.1 21-8.6 43-13 66-4.5 23-9 46-13 69-4.2 23-8.3 45-12 66-3.8 21-7.3 40-11 57-3.4 17-6.7 31-10 42-3.5 11-7.2 19-11 23-4.2 4.2-8.9 5-14 2.3-5.5-2.7-12-8.8-19-18-7.4-9.1-16-21-25-36-9.4-14-20-31-31-49-11-18-23-38-36-57-12-20-25-40-38-59-13-20-25-38-36-56-11-18-22-34-30-48-8.6-14-16-26-20-36-4.6-10-6.8-18-6.2-23 0.59-5.6 4-9.1 10-11 6.3-1.5 16-1.1 28 0.71 12 1.8 27 5.2 44 9.4 17 4.2 36 9.4 57 15 21 5.5 43 11 66 17 23 5.9 46 12 68 17 22 5.6 44 11 64 16 20 5 38 9.6 54 14 16 4.4 29 8.6 38 13 9.7 4.2 16 8.4 19 13 2.9 4.6 2.2 9.5-1.9 15-4.1 5.6-12 12-22 19-11 7-24 15-40 24-16 8.8-34 18-53 29-19 10-39 21-60 33-21 11-41 23-61 34-20 11-39 22-57 32s-34 19-48 26c-14 7.2-26 13-35 16-9.5 3.2-17 4.1-22 2.3-4.8-1.8-7.3-6.3-7.8-14-0.46-7.3 1.1-17 4.2-30 3.1-13 7.7-28 13-46 5.6-17 12-37 19-58 7-21 14-43 22-65 7.3-22 15-45 21-67 6.9-22 13-43 19-62 6.1-19 12-36 17-51 5.2-14 10-26 15-35 4.7-8.4 9.3-13 14-15 4.8-1.4 9.7 0.7 15 6.3 5.4 5.6 11 15 18 26s14 27 22 44c8 17 17 36 26 56 9.2 20 19 41 29 63 10 21 20 43 30 63 9.8 20 19 40 28 58 8.5 18 16 34 22 48 5.8 14 9.9 25 12 34 1.9 8.9 1.6 15-1.3 19-2.9 3.9-8.4 5.4-17 4.7-8.2-0.68-19-3.5-32-7.9-13-4.4-29-10-47-18-18-7.1-37-15-58-23-21-8.4-42-17-64-26-22-8.7-44-17-65-25-21-8.1-41-16-59-23-18-7.1-34-14-47-20-13-6-24-11-30-17-7-5.2-11-10-11-15 0-4.9 3.6-9.7 11-15 7-5.2 17-11 30-17 13-6 29-12 47-20 18-7.1 38-15 59-23 21-8.1 43-17 65-25s44-17 64-26c21-8.4 40-16 58-24 18-7 33-13 47-18 13-4.4 24-7.2 32-7.9 8.2-0.68 14 0.78 17 4.7 2.9 3.9 3.2 10 1.3 19-1.9 8.9-6 20-12 34-5.8 14-13 30-22 48-8.4 18-18 37-28 58s-20 42-30 63c-10 21-20 43-29 63-9.2 20-18 39-26 56-8 17-15 32-22 44-6.6 12-12 21-18 26-5.4 5.6-10 7.7-15 6.3-4.8-1.4-9.4-6.5-14-15-4.7-8.4-9.6-20-15-35-5.2-14-11-32-17-51-6.1-19-13-40-19-62-6.9-22-14-44-21-67-7.3-22-15-44-22-65-7-21-14-40-19-58-5.6-17-10-33-13-46-3.1-13-4.7-23-4.2-30 0.46-7.3 3-12 7.8-14 4.8-1.8 12-0.88 22 2.3 9.6 3.2 21 8.7 35 16 14 7.2 30 16 48 26 18 9.9 37 21 57 32 20 11 41 23 61 34 21 11 41 22 60 33 19 10 37 20 53 29 16 8.7 29 17 40 24 11 7.1 18 13 22 19 4.1 5.5 4.8 10 1.9 15-2.8 4.6-9.2 8.8-19 13-9.7 4.2-23 8.3-38 13-16 4.4-34 9-54 14-20 5-42 10-64 16-22 5.6-45 12-68 17-23 5.9-45 12-66 17-21 5.5-40 11-57 15-17 4.2-32 7.5-44 9.4-12 1.8-21 2.2-28 0.7-6.3-1.5-9.7-5-10-11-0.58-5.6 1.6-13 6.2-24 4.6-10 11-22 20-36 8.6-14 19-30 30-48 11-18 24-37 36-56 13-20 25-40 38-59s24-39 36-57c11-18 22-35 31-49 9.4-14 18-27 25-36 7.3-9.1 14-15 19-18 5.5-2.7 10-1.9 14 2.3 4.2 4.3 7.9 12 11 23 3.5 11 6.8 25 10 42 3.4 17 6.9 36 11 57 3.8 21 7.8 43 12 66 4.2 23 8.7 46 13 69 4.4 23 8.9 45 13 66 4.1 21 7.8 40 11 56 2.9 17 4.9 31 5.6 42 0.69 11-0.03 20-2.5 25-2.5 5.3-6.7 7.5-13 6.8-6.2-0.68-15-4.3-25-10-10-6-23-14-37-24-14-10-30-22-47-35-17-13-36-26-54-40-19-14-38-28-57-41-19-14-37-27-54-39-17-12-32-23-45-33-13-9.9-24-19-31-26-7.7-7.6-12-14-14-19-1.3-5.4 0.91-9.8 6.5-13 5.6-3.7 15-6.7 27-9.4 12-2.7 27-5.1 45-7.4 18-2.4 38-4.7 59-7.2 21-2.5 44-5.2 68-8.1 23-2.9 47-5.9 70-9 23-3 45-6.1 65-8.8 20-2.7 39-5.1 55-6.7 16-1.6 29-2.4 40-2 10 0.44 18 2.1 22 5.4 4.1 3.3 5 8.3 3 15-2 6.8-7 16-14 26-7.4 11-17 23-29 37-11 14-25 30-39 46-14 17-29 35-44 53-15 18-30 37-45 54-14 18-28 35-41 51-13 16-24 30-35 41-10 12-19 21-27 27-7.6 6.3-14 9.5-19 9.3-5-0.15-8.9-3.7-12-11-3-6.9-5.3-17-7-30-1.8-13-3.1-30-4.3-48-1.2-19-2.3-39-3.5-61-1.2-22-2.5-45-3.9-69-1.4-24-3-47-4.6-70-1.6-23-3.2-44-4.6-64-1.3-20-2.4-38-2.8-53-0.39-15-0.09-28 1.3-37 1.4-9.3 3.9-15 8-18 4-2.8 9.5-2.4 17 0.99 7.2 3.4 16 9.8 27 19 11 8.8 23 20 37 33 14 13 29 28 45 43 16 15 33 32 50 48 17 16 34 32 51 48 17 15 32 30 47 43 14 13 27 25 37 36 10 11 18 20 23 27 4.8 7.5 6.6 13 5.1 18-1.6 4.6-6.4 7.9-14 10-8.1 2.3-20 3.6-34 4.4-14 0.74-31 0.89-50 0.83-19-0.01-41-0.26-63-0.45-22-0.2-46-0.35-70-0.35-24 0-47 0.15-70 0.35-22 0.19-44 0.44-63 0.45-19 0.06-36-0.09-51-0.83-14-0.76-26-2.1-34-4.4-8.1-2.3-13-5.6-14-10-1.5-4.6 0.28-11 5.1-18 4.8-7.5 13-17 23-27 10-11 23-23 37-36 14-13 30-28 47-43 17-15 34-31 51-48 17-16 34-32 50-48 16-15 31-30 45-43 14-13 26-24 37-33 11-8.8 20-15 27-19 7.2-3.4 13-3.8 17-0.99 4 2.8 6.6 8.9 8 18 1.4 9.3 1.7 22 1.4 37-0.39 15-1.5 33-2.8 53-1.4 20-3 42-4.6 64-1.6 23-3.2 46-4.6 70-1.4 24-2.7 47-3.9 69-1.2 22-2.2 43-3.5 61-1.2 18-2.5 35-4.3 48-1.8 13-4 24-7 30-3.1 6.9-7 10-12 11-5.1 0.16-11-3.1-19-9.3-7.6-6.3-17-16-27-27-10-12-22-26-35-41-13-16-27-33-41-51-14-18-30-36-45-54-15-18-30-36-44-53-14-17-27-32-39-46-12-14-21-27-29-37-7.4-11-12-19-14-26-2-6.8-1.1-12 3-15 4.1-3.3 11-5 22-5.4 10-0.4 24 0.4 40 2 16 1.6 34 4 55 6.7 20 2.7 42 5.8 65 8.8 23 3.1 46 6.1 70 9 23 2.9 46 5.6 68 8.1 21 2.5 41 4.8 59 7.2 18 2.4 33 4.7 45 7.4 12 2.7 21 5.7 27 9.4 5.6 3.7 7.8 8.1 6.5 13-1.2 5.4-5.9 12-14 19-7.7 7.6-18 16-31 26-13 9.9-28 21-45 33-17 12-35 25-54 39-19 14-38 28-57 41-19 14-37 28-54 40-17 13-33 25-47 35-14 10-27 18-37 24-10 6-19 9.5-25 10-6.3 0.69-11-1.5-13-6.8-2.5-5.3-3.2-14-2.5-25 0.66-11 2.7-25 5.6-42 2.9-17 6.6-36 11-56 4.1-21 8.6-43 13-66 4.5-23 9-46 13-69 4.2-23 8.3-45 12-66 3.8-21 7.3-40 11-57 3.4-17 6.7-31 10-42 3.5-11 7.2-19 11-23 4.2-4.3 8.9-5 14-2.3 5.5 2.7 12 8.8 19 18 7.4 9.1 16 21 25 36 9.4 14 20 31 31 49 11 18 23 38 36 57 12 20 25 40 38 59 13 20 25 39 36 56 11 18 22 34 30 48 8.6 14 16 26 20 36 4.6 10 6.8 18 6.2 24s-4 9.1-10 11c-6.3 1.5-16 1.1-28-0.7-12-1.9-27-5.2-44-9.4-17-4.2-36-9.4-57-15-21-5.5-43-12-66-17s-46-12-68-17c-22-5.6-44-11-64-16-20-5-38-9.6-54-14-16-4.4-29-8.6-38-13-9.7-4.2-16-8.4-19-13-2.9-4.6-2.2-9.5 1.9-15 4.1-5.6 12-12 22-19 11-7 24-15 40-24 16-8.8 34-18 53-29 19-10 40-21 60-33 21-11 41-23 61-34 20-11 39-22 57-32 18-9.9 34-19 48-26 14-7.2 26-13 35-16 9.5-3.2 17-4.1 22-2.3 4.8 1.8 7.3 6.3 7.8 14 0.48 7.3-1.1 17-4.2 30-3.1 13-7.7 28-13 46-5.6 17-12 37-19 58-7 21-14 43-22 65-7.3 22-15 45-21 67-6.9 22-13 43-19 62-6.1 19-12 36-17 51-5.2 14-10 26-15 35-4.8 8.3-9.3 13-14 15-4.8 1.4-9.7-0.71-15-6.3-5.4-5.6-11-15-18-26-6.6-12-14-27-22-44-8-17-17-36-26-56-9.2-20-19-41-29-63-10-21-20-43-30-63-9.8-20-19-40-28-58-8.5-18-16-34-22-48-5.8-14-9.9-25-12-34-1.9-8.9-1.6-15 1.3-19 2.9-3.9 8.4-5.4 17-4.7 8.2 0.69 19 3.5 32 7.9 13 4.4 29 10 47 18 18 7 37 15 58 24 21 8.4 42 17 64 26 22 8.7 44 17 65 25 21 8.1 41 16 59 23 18 7.1 34 14 47 20 13 6 24 11 30 17 7 5.2 11 10 11 15z" fill="none" mask="url(#mask48)" stroke="#000" stroke-width="3"/>
</svg>
