<?xml version="1.0" encoding="UTF-8"?>
<svg version="1.1" viewBox="0 0 500 500" xmlns="http://www.w3.org/2000/svg">
  <g fill="none">
    <path d="m490 209c-0.61 139-61 166-87 190s-1.1-102-153 84c-150-186-123-58-153-84s-87-52-87-190c0-66 27-126 70-170 11-11 23-21 36-29h268c13 8.6 25 18 36 29 43 43 71 103 70 170z" stroke="#000" stroke-width="20"/>
    <path d="m490 209c-0.61 139-61 166-87 190s-1.1-102-153 84c-150-186-123-58-153-84s-87-52-87-190c0-66 27-126 70-170 11-11 23-21 36-29h268c13 8.6 25 18 36 29 43 43 71 103 70 170z" stroke="#000001" stroke-width="16"/>
    <path d="m490 209c-0.61 139-61 166-87 190s-1.1-102-153 84c-150-186-123-58-153-84s-87-52-87-190c0-66 27-126 70-170 11-11 23-21 36-29h268c13 8.6 25 18 36 29 43 43 71 103 70 170z" stroke="#000002" stroke-width="12"/>
    <path d="m490 209c-0.61 139-61 166-87 190s-1.1-102-153 84c-150-186-123-58-153-84s-87-52-87-190c0-66 27-126 70-170 11-11 23-21 36-29h268c13 8.6 25 18 36 29 43 43 71 103 70 170z" stroke="#000003" stroke-width="8"/>
    <path d="m490 209c-0.61 139-61 166-87 190s-1.1-102-153 84c-150-186-123-58-153-84s-87-52-87-190c0-66 27-126 70-170 11-11 23-21 36-29h268c13 8.6 25 18 36 29 43 43 71 103 70 170z" stroke="#000004" stroke-width="4"/>
  </g>
</svg>
