<?xml version="1.0" encoding="UTF-8"?>
<svg width="1280pt" height="1164pt" version="1.0" viewBox="0 0 1280 1164" xmlns="http://www.w3.org/2000/svg">
  <path d="m452 1e3c-0.1 11 2.8 20 8.3 25 7.7 7.7 20 12 27 10 6.1-1.7 6-5.2-0.1-6.9-1.8-0.6-4.4-0.99-5.8-0.99-3.8 0-12-4.5-17-9-6.1-5.7-9.6-12-11-20l-1.2-6.4zm162-992c-12 5.9-18 25-16 48 1.5 16 5.9 31 15 51l5.3 12-1.1 8.2c-4.2 30-20 70-49 126-26 49-40 80-49 99-1.5 4.2-3.1 7.7-3.4 7.7-0.89 0-7.4-23-9.4-33-3.1-16-3.7-25-3.2-43 0.29-10 1.1-21 2.1-25 5.2-25 16-49 25-58 4.9-4.5 7.6-5.6 13-5.6 7.7 0 13-4.6 17-14 1.6-4.2 1.6-5 0.29-8.6-2-5.7-5.5-8-13-8.5-4.9-0.3-6.9 0.1-10 2-2.4 1.3-4.8 3.4-5.5 4.8s-2.9 5.8-4.8 9.9c-2 4.1-7.3 12-12 18-13 16-19 29-24 52-4 19-4.4 52-0.69 67l-3.4-0.79c-9.5-7.5-18-9.1-23-4.3-3.2 3.3-3.6 5.8-1.4 9.9 1.9 3.8 3.3 4.2 14 5.1 14 1.1 15 2.2 19 15 1.6 5.6 5 16 7.6 24 2.7 7.3 4.8 14 4.8 15s-1.8 7.6-4 15c-13 46-20 99-17 148 0.6 11 0.99 19 0.79 20-0.09 0.1-1.8-2.2-3.8-5.2-6.6-10-24-29-35-37-4.7-3.8-8.7-4-12-0.59-2.5 2.4-3.3 7.5-1.7 10 0.39 0.69 4.9 3.3 10 5.8s12 6.3 15 8.6c7.2 5 19 16 24 23 3.6 4.8 3.8 5.3 5.9 21 8.9 65 33 133 67 191 4.2 7 7.4 13 7.2 13-0.2 0.19-3.2 1.8-6.7 3.6-3.6 1.8-10 5.6-15 8.5-4.8 3-8.9 5.4-9.2 5.4-0.29 0-0.58-2.2-0.58-4.9 0-11-6.8-25-16-34-29-27-82-37-135-27-54 11-122 47-183 99-18 15-59 57-75 76-40 48-73 99-99 156-12 26-21 46-19 48 1.2 1.2 5.8-1.1 18-9.3 26-17 39-22 67-28 16-3.3 43-7.4 45-6.8 1.1 0.3-27 32-43 48-5 5.2-12 11-15 14-6.4 4.7-16 9.1-20 9.2-0.99 0-4.4-1.8-7.5-4-3.2-2.2-6.7-4-8.1-4-5.2 0-6.1 5.8-1.4 9.3 2.4 1.8 4.3 2.1 12 2.1 8.2 0 9.8-0.3 16-3.3 14-6.5 22-14 57-52l18-20 7.2-0.6c3.8-0.4 18-1.1 32-1.7 66-2.7 81-3.9 111-8.5 8.9-1.4 16-2.3 16-2.1 0.61 0.59-9.8 9.6-22 19-40 31-81 48-111 44-4.4-0.5-8-0.89-8.1-0.89-0.19-0.1-0.29-2.4-0.29-5.2s-0.51-5.8-1-6.9c-2.6-4.7-12-6.3-18-3.3-4.2 2.1-5.8 4.5-7.2 11-0.89 4.3-0.79 5.4 1.1 9.2 2.3 4.8 11 11 14 11 2.2 0 26-5.5 47-11 37-9.5 69-28 106-61l9.2-8.3 12-2.9c38-8.6 73-22 106-38 8.5-4.3 13-5.8 13-5 0.41 0.79 0.6 0.69 0.6-0.31 0.1-0.79 4.8-4.1 10-7.3 26-15 54-35 78-55 12-11 39-38 50-50 27-31 48-62 69-99l3.8-7.1 4.2 3.6c2.3 2 8.5 6.5 14 10l9.7 6.6-5.2 2.8c-11 6-18 16-22 31-3.1 11-3.1 31 0 46 14 66 64 120 154 167 69 36 146 57 236 66 23 2.2 98 2.5 121 0.5 24-2.2 41-4.3 42-5.3 0.5-0.5 2.3-0.89 4.1-0.89 4.4 0 4.2-2.3-0.4-5.3-2.1-1.3-10-5.6-18-9.4-20-10-28-16-42-30-18-18-35-40-53-66-13-19-37-59-37-59 1.6-1.5 74-14 95-17 16-1.9 15-2.8 20 8.9 3.6 7 8.3 20 8.3 22 0 1.1-0.8 1.3-3.2 0.79-5.8-1.1-13 1.8-18 6.9-9.6 11-6.8 25 6.3 31 2.6 1.3 6.4 2.4 8.2 2.4 7.1 0 14-5 18-12 1.7-3.2 2.1-5.6 2-12-0.1-9.8-2.9-19-12-38l-5.3-11 11 0.6c19 0.79 36 5.4 47 13 4.7 3.2 4.9 3.5 5.3 8.2 0.3 8.5 1.1 11 4.4 15 3.5 4.2 4.6 4.3 7.6 0.98 2-2.1 2.2-3.1 1.6-7-0.8-6.3-3.8-11-11-16-16-12-37-18-60-18h-9.4l-4.4-6.2c-6.4-9.2-24-27-34-35-18-13-37-24-60-32l-13-4.7 4.1-1.1c7.3-2 23-10 25-13 2.4-3.1 2.6-7.5 0.7-9.2-0.8-0.69-3-1.1-4.7-0.9-2.6 0.21-3.9 1.3-6.4 4.8-5.3 7.3-9.1 11-15 13-9.5 3.7-14 3.9-25 1.5-18-4-41-6.8-66-8l-15-0.7-10-9c-27-23-56-43-87-59l-13-6.9 13-3.3c26-6.4 49-18 49-23 0-2.7-3.4-7.6-5.9-8.7-3.3-1.4-6.9 0.1-11 4.5s-18 14-25 18c-7.3 3.7-23 9.4-26 9.4-1.1 0-6-1.9-11-4.1-42-19-82-30-134-38-32-5-107-5.8-126-1.5-2.2 0.49-4.2 0.59-4.8 0.1-0.4-0.4-3.2-6.4-6.1-13l-5.4-13 2.9-15c1.7-8.1 3.7-20 4.5-27 1.9-15 3.8-50 3-55-1.1-7.5-0.68-34 0.59-39 1.7-6.9 4.4-12 8.7-17 5.2-5.5 8.2-6.7 18-7.6 7.5-0.59 9.1-1.1 11-3 2.4-3 2.3-8-0.29-11-2.6-3.3-8.3-3.5-15-0.4-6.7 3.2-20 17-24 24-3.5 7-3.2 7.3-5.2-5.2l-1.1-6.9 15-27c19-34 30-54 37-68 20-43 30-76 36-120 1.9-14 1.6-60-0.49-76-4.2-31-14-66-25-91-3-6.4-3.4-8.2-3.4-16 0-7.8-1.2-21-2.6-30-0.49-3.4-0.29-3.1 3.5 2.7 15 23 37 65 44 84 5.5 14 24 66 29 84 24 78 36 144 36 200 0 32-2.6 55-9.4 82-11 45-34 82-63 99-17 11-33 11-40-0.1-4-5.9-4.1-8.9-0.6-13 5.6-7.1 2.9-16-5.7-18-7.8-2.3-14 4.2-18 18-2.4 8.1-1.6 21 1.8 28 3.3 7.1 10 14 17 18 42 23 105-28 130-99 5.6-17 10-41 13-62 0.6-5.4 1.3-21 1.7-34 3.1-124-40-259-121-378-18-26-29-40-32-40-2.2 0-2.3 2.5-0.69 27 0.2 3.9 0 6.6-0.4 6.1-1.7-1.7-9.9-24-12-32-3.9-15-4.8-30-2.2-36 0.39-0.9 1.4-2.9 2.2-4.5 0.78-1.6 4.4-5.4 8.1-8.4 7.6-6.3 9.9-9.6 9.4-14-0.39-4.1-3.6-4.5-9.7-1.5zm26 154c14 36 20 69 22 108 1.3 43-5.6 84-22 127-11 29-23 54-49 99l-15 27-4.1-17c-5.2-21-11-39-20-60l-6.9-17 2.9-13c8.1-38 17-63 49-136 15-34 21-49 26-66 6.4-20 10-38 12-54 0.31-4.5 1-7.9 1.5-7.5 0.39 0.4 2.1 4.3 3.7 8.3zm-93 307c8.7 23 20 62 20 68 0 0.9-2.7 7.2-5.9 14-6.2 13-15 35-15 37 0 0.79-0.39 1.5-0.88 1.5-0.8 0-2.1-8.2-4.6-31-2.1-18-2.9-62-1.5-82 1.1-16 1.8-21 2.6-20 0.2 0.2 2.4 5.4 4.8 12zm25 96c2.1 18 2.9 57 1.5 74-1.4 18-4.2 38-5.2 38-1.9 0-14-44-19-66l-2.6-12 3.5-9.9c3.8-11 11-28 16-37l3-6 0.81 3c0.49 1.6 1.6 8.7 2.5 16zm49 200c-0.29 1.3-1.2 3.4-1.9 4.6l-1.2 2.4-2.7-3.9-2.6-3.9 3.6-0.59c2.1-0.3 4.2-0.7 4.6-0.8 0.5 0 0.5 0.89 0.1 2.1zm92 2.4c9.3 1.3 18 2.6 18 2.9 1.4 0.6 31 57 30 58-0.98 1-26-6.9-34-11-5.1-2.5-10-4.4-11-4.4-3.8 0-30-17-44-28-1.1-0.88-0.7-2.6 2.1-9.2 1.9-4.6 3.9-8.9 4.6-9.7 1.5-1.9 8.9-1.4 34 2.3zm-262 3.9c28 4.8 48 16 54 29 3.6 7.6 2.9 14-2.3 21-2.3 3.1-2.7 3.3-8.8 3.3-7.5 0-9.7 0.89-12 5-2.5 4.8-2 11 1.3 14 1.5 1.5 3.4 3 4.2 3.3 1.1 0.4-1.3 3.4-8 10l-9.6 9.7-18 2.4c-99 14-175 58-270 161l-10 11-16 2.3c-21 3-40 7.4-56 13-22 7.5-50 22-68 35-4.3 3.2-7.7 5.7-7.7 5.5 0-0.99 20-36 28-50 15-24 26-38 64-82 64-73 121-123 178-156 35-20 77-35 111-38 11-1.3 33-0.59 44 1.4zm311 5.8c32 8 62 19 92 34 16 7.5 44 23 46 26 1.7 1.7-83 0.3-99-1.6-12-1.5-22-3-27-4.1-1.6-0.39-3.8-3.8-8.5-13-20-38-23-45-22-45 0.68 0 9.1 2 19 4.4zm-181 34c2.3 3.5 5 7.2 6.1 8.4l2 2.2-2.8 4.3c-4.2 6.4-12 17-20 27l-7.2 9.2h-19c-10 0-27 0.49-37 0.99-10 0.6-19 0.9-19 0.8-0.69-0.8 20-18 23-19 10-3.5 22-13 24-18 0.78-2.5 16-11 31-17 6.8-2.8 13-5.1 14-5.1s3.1 2.8 5.3 6.2zm178 27 9.8 2.2 4 7c34 59 67 88 118 99 23 6.7 46 10 74 10 16 0 42-1.8 57-3.8l6-0.8 10 14c29 40 44 59 52 69 11 13 32 34 42 41 18 13 40 26 54 32 5.8 2.3 6.6 2.8 4.6 3.3-3.8 1.1-58 0.79-73-0.3-22-1.7-60-8.2-107-18-83-18-155-44-206-75-37-22-68-51-88-80-23-34-32-78-20-96 4.8-6.9 17-11 23-7 1.3 0.88 3.1 3.5 4.2 5.8 2.3 5.3 4.3 6.6 10 6.6 4 0 5.1-0.5 8.1-3.5 3.4-3.4 3.5-3.8 3-8.5-0.6-4.9-0.5-5 1.6-4.4 1.2 0.29 6.5 1.6 12 2.8zm35 6.1c16 2 36 3.6 47 3.6 7.8 0 8.9 0.2 13 3 2.5 1.7 6.6 5.3 9.1 7.9 4.1 4.4 6.2 8.2 12 22 1.9 4.4 5.4 6 8.8 3.8 3.3-2.1 3.4-8 0.32-14-2.2-4.6-11-14-18-19l-3.4-2.6 12-0.1c6.8-0.1 19-0.5 26-1l14-0.79 9.4 6.3c20 13 44 34 60 52 15 16 39 46 39 47-1.2 1.1-23 2.8-42 3.3-34 0.89-61-2.3-86-10-42-13-72-35-99-74-6.4-9.3-18-27-18-28 0-0.3 0.81-0.3 1.8 0 0.89 0.29 7 1.2 14 2zm218 1.6c40 3.3 71 12 99 27 25 13 48 31 63 50l3.6 4.7-4.2 0.49c-2.5 0.3-8.8 0.99-14 1.6-13 1.5-40 5.8-69 11-13 2.4-24 4.4-24 4.2-0.1-0.1-3.7-5.4-8-12-19-28-38-52-60-74l-14-15h6.4c3.6 0 12 0.49 19 0.98zm-459 24c-4 5.8-44 45-55 54-31 26-62 46-98 64-8.4 4.2-16 8-18 8.4-1.7 0.49 0.98-3.8 10-17 6.9-9.4 20-28 29-40 20-27 38-50 49-62l7.7-8.1 12-0.98c6.7-0.51 23-1.3 36-1.7 13-0.4 25-0.9 26-0.9l2.3-0.19zm-98 6.3c-3.3 2-7.6 4.3-9.8 5-4.6 1.7-10 1.8-10 0.2 0-0.59-0.89-0.3-2 0.69-2.7 2.5-2.5 4.3 0.59 5.1 4.8 1.2 9.6-0.5 20-7.2 9-6 9.7-6.3 7-3.1-1.7 1.9-7.7 9.1-14 16-11 13-24 30-37 48-6.7 9.3-8.5 11-13 13-8.5 4-14 4.6-28 3.3-14-1.4-15-1.2-17 4.7-1.5 4.6 0.1 8.7 4 10 5 2.1 20-1.1 36-7.4 1.9-0.79-21 33-26 39-5.8 6.1-49 18-86 25-23 4-98 13-98 11s53-54 65-64c65-58 121-86 200-99 8.8-1.6 17-2.9 19-2.9 2.7-0.1 2.5 0.19-3 3.5z" stroke="#000001" stroke-opacity=".25" stroke-width="14"/>
</svg>
